Pontano.ufo
<glyph name="exclam" format="1">
  <advance width="428"/>
  <unicode hex="0021"/>
  <outline>
    <contour>
      <point x="191" y="305" type="line" smooth="no"/>
      <point x="138" y="1464" type="line" smooth="no"/>
      <point x="307" y="1464" type="line" smooth="no"/>
      <point x="250" y="305" type="line" smooth="no"/>
    </contour>
    <contour>
      <point x="138" y="197" type="line" smooth="no"/>
      <point x="302" y="197" type="line" smooth="no"/>
      <point x="302" y="0" type="line" smooth="no"/>
      <point x="138" y="0" type="line" smooth="no"/>
    </contour>
  </outline>
</glyph>
<glyph name="quotedbl" format="1">
  <advance width="510"/>
  <unicode hex="0022"/>
  <outline>
    <contour>
      <point x="457" y="1464" type="line" smooth="no"/>
      <point x="406" y="1000" type="line" smooth="no"/>
      <point x="355" y="1000" type="line" smooth="no"/>
      <point x="303" y="1464" type="line" smooth="no"/>
    </contour>
    <contour>
      <point x="53" y="1464" type="line" smooth="no"/>
      <point x="207" y="1464" type="line" smooth="no"/>
      <point x="156" y="1000" type="line" smooth="no"/>
      <point x="105" y="1000" type="line" smooth="no"/>
    </contour>
  </outline>
</glyph>
<glyph name="numbersign" format="1">
  <advance width="1221"/>
  <unicode hex="0023"/>
  <outline>
    <contour>
      <point x="278" y="1" type="line" smooth="no"/>
      <point x="144" y="0" type="line" smooth="no"/>
      <point x="255.481" y="551" type="line" smooth="no"/>
      <point x="51" y="551" type="line" smooth="no"/>
      <point x="80" y="649" type="line" smooth="no"/>
      <point x="275.308" y="649" type="line" smooth="no"/>
      <point x="326.294" y="901" type="line" smooth="no"/>
      <point x="120" y="901" type="line" smooth="no"/>
      <point x="149" y="999" type="line" smooth="no"/>
      <point x="346.122" y="999" type="line" smooth="no"/>
      <point x="440" y="1463" type="line" smooth="no"/>
      <point x="579" y="1464" type="line" smooth="no"/>
      <point x="483.33" y="999" type="line" smooth="no"/>
      <point x="808.122" y="999" type="line" smooth="no"/>
      <point x="902" y="1463" type="line" smooth="no"/>
      <point x="1041" y="1464" type="line" smooth="no"/>
      <point x="945.33" y="999" type="line" smooth="no"/>
      <point x="1175" y="999" type="line" smooth="no"/>
      <point x="1146" y="901" type="line" smooth="no"/>
      <point x="925.167" y="901" type="line" smooth="no"/>
      <point x="873.321" y="649" type="line" smooth="no"/>
      <point x="1106" y="649" type="line" smooth="no"/>
      <point x="1077" y="551" type="line" smooth="no"/>
      <point x="853.158" y="551" type="line" smooth="no"/>
      <point x="740" y="1" type="line" smooth="no"/>
      <point x="606" y="0" type="line" smooth="no"/>
      <point x="717.481" y="551" type="line" smooth="no"/>
      <point x="391.158" y="551" type="line" smooth="no"/>
    </contour>
    <contour>
      <point x="463.167" y="901" type="line" smooth="no"/>
      <point x="411.321" y="649" type="line" smooth="no"/>
      <point x="737.308" y="649" type="line" smooth="no"/>
      <point x="788.294" y="901" type="line" smooth="no"/>
    </contour>
  </outline>
</glyph>
<glyph name="dollar" format="1">
  <advance width="1323"/>
  <unicode hex="0024"/>
  <outline>
    <contour>
      <point x="642" y="871" type="line" smooth="no"/>
      <point x="492" y="919"/>
      <point x="337" y="975"/>
      <point x="337" y="1128" type="curve" smooth="yes"/>
      <point x="337" y="1283"/>
      <point x="472" y="1352"/>
      <point x="642" y="1362" type="curve" smooth="no"/>
    </contour>
    <contour>
      <point x="731" y="103" type="line" smooth="no"/>
      <point x="731" y="692" type="line" smooth="no"/>
      <point x="943" y="616"/>
      <point x="1058" y="556"/>
      <point x="1058" y="388" type="curve" smooth="yes"/>
      <point x="1058" y="188"/>
      <point x="898" y="115"/>
      <point x="734" y="103" type="curve" smooth="no"/>
    </contour>
    <contour>
      <point x="642" y="-201" type="line" smooth="no"/>
      <point x="731" y="-201" type="line" smooth="no"/>
      <point x="731" y="-23" type="line" smooth="no"/>
      <point x="1025" y="-7"/>
      <point x="1211" y="142"/>
      <point x="1211" y="393" type="curve" smooth="yes"/>
      <point x="1211" y="646"/>
      <point x="1035" y="726"/>
      <point x="766" y="829" type="curve" smooth="yes"/>
      <point x="755" y="833"/>
      <point x="743" y="838"/>
      <point x="731" y="842" type="curve" smooth="no"/>
      <point x="731" y="1363" type="line" smooth="no"/>
      <point x="915" y="1350"/>
      <point x="1020" y="1246"/>
      <point x="1074" y="1148" type="curve" smooth="no"/>
      <point x="1178" y="1224" type="line" smooth="no"/>
      <point x="1070" y="1389"/>
      <point x="932" y="1469"/>
      <point x="731" y="1480" type="curve" smooth="no"/>
      <point x="731" y="1674" type="line" smooth="no"/>
      <point x="642" y="1674" type="line" smooth="no"/>
      <point x="642" y="1481" type="line" smooth="no"/>
      <point x="408" y="1471"/>
      <point x="184" y="1357"/>
      <point x="184" y="1116" type="curve" smooth="yes"/>
      <point x="184" y="877"/>
      <point x="408" y="804"/>
      <point x="618" y="731" type="curve" smooth="yes"/>
      <point x="626" y="728"/>
      <point x="634" y="725"/>
      <point x="642" y="723" type="curve" smooth="no"/>
      <point x="642" y="102" type="line" smooth="no"/>
      <point x="419" y="113"/>
      <point x="278" y="218"/>
      <point x="221" y="426" type="curve" smooth="no"/>
      <point x="98" y="373" type="line" smooth="no"/>
      <point x="151" y="84"/>
      <point x="422" y="-15"/>
      <point x="642" y="-24" type="curve" smooth="no"/>
    </contour>
  </outline>
</glyph>
<glyph name="ampersand" format="1">
  <advance width="1430"/>
  <unicode hex="0026"/>
  <outline>
    <contour>
      <point x="1010" y="1211" type="curve" smooth="yes"/>
      <point x="1010" y="1392"/>
      <point x="861" y="1489"/>
      <point x="673" y="1489" type="curve" smooth="yes"/>
      <point x="495" y="1489"/>
      <point x="325" y="1391"/>
      <point x="325" y="1210" type="curve" smooth="yes"/>
      <point x="325" y="1089"/>
      <point x="380" y="989"/>
      <point x="484" y="873" type="curve" smooth="no"/>
      <point x="258" y="783"/>
      <point x="98" y="632"/>
      <point x="98" y="413" type="curve" smooth="yes"/>
      <point x="98" y="172"/>
      <point x="292" y="-26"/>
      <point x="582" y="-26" type="curve" smooth="yes"/>
      <point x="807" y="-26"/>
      <point x="975" y="75"/>
      <point x="1088" y="195" type="curve" smooth="no"/>
      <point x="1160" y="123"/>
      <point x="1236" y="40"/>
      <point x="1320" y="-28" type="curve" smooth="no"/>
      <point x="1393" y="57" type="line" smooth="no"/>
      <point x="1298" y="139"/>
      <point x="1257" y="194"/>
      <point x="1169" y="285" type="curve" smooth="no"/>
      <point x="1232" y="406"/>
      <point x="1285" y="567"/>
      <point x="1311" y="782" type="curve" smooth="no"/>
      <point x="1181" y="801" type="line" smooth="no"/>
      <point x="1159" y="646"/>
      <point x="1135" y="481"/>
      <point x="1074" y="381" type="curve" smooth="no"/>
      <point x="677" y="836" type="line" smooth="no"/>
      <point x="877" y="936"/>
      <point x="1010" y="1044"/>
    </contour>
    <contour>
      <point x="609" y="917" type="curve" smooth="no"/>
      <point x="518" y="1015"/>
      <point x="459" y="1120"/>
      <point x="459" y="1209" type="curve" smooth="yes"/>
      <point x="459" y="1324"/>
      <point x="569" y="1391"/>
      <point x="678" y="1391" type="curve" smooth="yes"/>
      <point x="782" y="1391"/>
      <point x="882" y="1326"/>
      <point x="882" y="1205" type="curve" smooth="yes"/>
      <point x="882" y="1123"/>
      <point x="842" y="1026"/>
    </contour>
    <contour>
      <point x="603" y="85" type="curve" smooth="yes"/>
      <point x="350" y="85"/>
      <point x="244" y="254"/>
      <point x="244" y="419" type="curve" smooth="yes"/>
      <point x="244" y="566"/>
      <point x="330" y="676"/>
      <point x="557" y="785" type="curve" smooth="no"/>
      <point x="690" y="635"/>
      <point x="857" y="445"/>
      <point x="1002" y="283" type="curve" smooth="no"/>
      <point x="895" y="150"/>
      <point x="743" y="85"/>
    </contour>
  </outline>
</glyph>
<glyph name="quotesingle" format="1">
  <advance width="280"/>
  <unicode hex="0027"/>
  <outline>
    <contour>
      <point x="173" y="1000" type="line" smooth="no"/>
      <point x="122" y="1000" type="line" smooth="no"/>
      <point x="70" y="1464" type="line" smooth="no"/>
      <point x="224" y="1464" type="line" smooth="no"/>
    </contour>
  </outline>
</glyph>
<glyph name="parenleft" format="1">
  <advance width="602"/>
  <unicode hex="0028"/>
  <outline>
    <contour>
      <point x="523" y="1587" type="curve" smooth="no"/>
      <point x="560" y="1482" type="line" smooth="no"/>
      <point x="290" y="1406"/>
      <point x="185" y="1117"/>
      <point x="185" y="703" type="curve" smooth="yes"/>
      <point x="185" y="288"/>
      <point x="291" y="-1"/>
      <point x="560" y="-73" type="curve" smooth="no"/>
      <point x="523" y="-180" type="line" smooth="no"/>
      <point x="231" y="-110"/>
      <point x="34" y="164"/>
      <point x="34" y="703" type="curve" smooth="yes"/>
      <point x="34" y="1242"/>
      <point x="232" y="1518"/>
    </contour>
  </outline>
</glyph>
<glyph name="parenright" format="1">
  <advance width="602"/>
  <unicode hex="0029"/>
  <outline>
    <contour>
      <point x="79" y="-180" type="curve" smooth="no"/>
      <point x="42" y="-75" type="line" smooth="no"/>
      <point x="312" y="1"/>
      <point x="417" y="290"/>
      <point x="417" y="704" type="curve" smooth="yes"/>
      <point x="417" y="1119"/>
      <point x="311" y="1408"/>
      <point x="42" y="1480" type="curve" smooth="no"/>
      <point x="79" y="1587" type="line" smooth="no"/>
      <point x="371" y="1517"/>
      <point x="568" y="1243"/>
      <point x="568" y="704" type="curve" smooth="yes"/>
      <point x="568" y="165"/>
      <point x="370" y="-111"/>
    </contour>
  </outline>
</glyph>
<glyph name="asterisk" format="1">
  <advance width="826"/>
  <unicode hex="002a"/>
  <outline>
    <contour>
      <point x="463" y="762" type="line" smooth="no"/>
      <point x="363" y="762" type="line" smooth="no"/>
      <point x="373" y="1049" type="line" smooth="no"/>
      <point x="108" y="894" type="line" smooth="no"/>
      <point x="61" y="982" type="line" smooth="no"/>
      <point x="336" y="1112" type="line" smooth="no"/>
      <point x="60" y="1242" type="line" smooth="no"/>
      <point x="107" y="1330" type="line" smooth="no"/>
      <point x="373" y="1175" type="line" smooth="no"/>
      <point x="363" y="1463" type="line" smooth="no"/>
      <point x="463" y="1463" type="line" smooth="no"/>
      <point x="453" y="1176" type="line" smooth="no"/>
      <point x="718" y="1331" type="line" smooth="no"/>
      <point x="765" y="1243" type="line" smooth="no"/>
      <point x="490" y="1113" type="line" smooth="no"/>
      <point x="766" y="983" type="line" smooth="no"/>
      <point x="719" y="895" type="line" smooth="no"/>
      <point x="453" y="1050" type="line" smooth="no"/>
    </contour>
  </outline>
</glyph>
<glyph name="plus" format="1">
  <advance width="860"/>
  <unicode hex="002b"/>
  <outline>
    <contour>
      <point x="72" y="673" type="line" smooth="no"/>
      <point x="72" y="773" type="line" smooth="no"/>
      <point x="376" y="773" type="line" smooth="no"/>
      <point x="376" y="1100" type="line" smooth="no"/>
      <point x="478" y="1100" type="line" smooth="no"/>
      <point x="478" y="773" type="line" smooth="no"/>
      <point x="778" y="773" type="line" smooth="no"/>
      <point x="778" y="673" type="line" smooth="no"/>
      <point x="478" y="673" type="line" smooth="no"/>
      <point x="478" y="350" type="line" smooth="no"/>
      <point x="376" y="350" type="line" smooth="no"/>
      <point x="376" y="673" type="line" smooth="no"/>
    </contour>
  </outline>
</glyph>
<glyph name="zero" format="1">
  <advance width="1246"/>
  <unicode hex="0030"/>
  <outline>
    <contour>
      <point x="623" y="-25" type="curve" smooth="yes"/>
      <point x="964" y="-25"/>
      <point x="1132" y="285"/>
      <point x="1132" y="724" type="curve" smooth="yes"/>
      <point x="1132" y="1164"/>
      <point x="963" y="1491"/>
      <point x="623" y="1491" type="curve" smooth="yes"/>
      <point x="283" y="1491"/>
      <point x="114" y="1164"/>
      <point x="114" y="724" type="curve" smooth="yes"/>
      <point x="114" y="285"/>
      <point x="282" y="-25"/>
    </contour>
    <contour>
      <point x="623" y="1374" type="curve" smooth="yes"/>
      <point x="856" y="1374"/>
      <point x="977" y="1101"/>
      <point x="977" y="724" type="curve" smooth="yes"/>
      <point x="977" y="360"/>
      <point x="864" y="93"/>
      <point x="623" y="93" type="curve" smooth="yes"/>
      <point x="382" y="93"/>
      <point x="269" y="360"/>
      <point x="269" y="724" type="curve" smooth="yes"/>
      <point x="269" y="1101"/>
      <point x="390" y="1374"/>
    </contour>
  </outline>
</glyph>
<glyph name="one" format="1">
  <advance width="592"/>
  <unicode hex="0031"/>
  <outline>
    <contour>
      <point x="288" y="1328" type="line" smooth="no"/>
      <point x="288" y="0" type="line" smooth="no"/>
      <point x="434" y="0" type="line" smooth="no"/>
      <point x="434" y="1464" type="line" smooth="no"/>
      <point x="305" y="1464" type="line" smooth="no"/>
      <point x="58" y="1364" type="line" smooth="no"/>
      <point x="102" y="1248" type="line" smooth="no"/>
    </contour>
  </outline>
</glyph>
<glyph name="two" format="1">
  <advance width="1137"/>
  <unicode hex="0032"/>
  <outline>
    <contour>
      <point x="185" y="1089" type="line" smooth="no"/>
      <point x="268.472" y="1272.03"/>
      <point x="396.994" y="1370"/>
      <point x="574" y="1370" type="curve" smooth="yes"/>
      <point x="733" y="1370"/>
      <point x="880" y="1262"/>
      <point x="880" y="1062" type="curve" smooth="yes"/>
      <point x="880" y="627"/>
      <point x="116" y="481"/>
      <point x="100" y="0" type="curve" smooth="no"/>
      <point x="1019" y="0" type="line" smooth="no"/>
      <point x="1019" y="121" type="line" smooth="no"/>
      <point x="280" y="121" type="line" smooth="no"/>
      <point x="441" y="442"/>
      <point x="1040" y="619"/>
      <point x="1040" y="1060" type="curve" smooth="yes"/>
      <point x="1040" y="1363"/>
      <point x="809" y="1492"/>
      <point x="562" y="1492" type="curve" smooth="yes"/>
      <point x="337" y="1492"/>
      <point x="168" y="1388"/>
      <point x="56" y="1141" type="curve" smooth="no"/>
    </contour>
  </outline>
</glyph>
<glyph name="three" format="1">
  <advance width="1092"/>
  <unicode hex="0033"/>
  <outline>
    <contour>
      <point x="926" y="1152" type="curve" smooth="yes"/>
      <point x="926" y="1350.83"/>
      <point x="781" y="1491"/>
      <point x="535" y="1491" type="curve" smooth="yes"/>
      <point x="365" y="1491"/>
      <point x="223" y="1411.68"/>
      <point x="123" y="1256" type="curve" smooth="no"/>
      <point x="229" y="1192" type="line" smooth="no"/>
      <point x="320" y="1332.59"/>
      <point x="430" y="1374"/>
      <point x="542" y="1374" type="curve" smooth="yes"/>
      <point x="708" y="1374"/>
      <point x="783" y="1257.49"/>
      <point x="783" y="1140" type="curve" smooth="yes"/>
      <point x="783" y="1006"/>
      <point x="715" y="864"/>
      <point x="441" y="864" type="curve" smooth="no"/>
      <point x="441" y="751" type="line" smooth="no"/>
      <point x="695" y="751"/>
      <point x="848" y="655"/>
      <point x="848" y="396" type="curve" smooth="yes"/>
      <point x="848" y="244.5"/>
      <point x="742" y="93"/>
      <point x="533" y="93" type="curve" smooth="yes"/>
      <point x="377" y="93"/>
      <point x="268" y="184.345"/>
      <point x="213" y="358" type="curve" smooth="no"/>
      <point x="89" y="316" type="line" smooth="no"/>
      <point x="150" y="68.2735"/>
      <point x="351" y="-25"/>
      <point x="545" y="-25" type="curve" smooth="yes"/>
      <point x="838" y="-25"/>
      <point x="997" y="195.515"/>
      <point x="997" y="403" type="curve" smooth="yes"/>
      <point x="997" y="581"/>
      <point x="906" y="755"/>
      <point x="684" y="818" type="curve" smooth="no"/>
      <point x="854" y="873"/>
      <point x="926" y="1012"/>
    </contour>
  </outline>
</glyph>
<glyph name="four" format="1">
  <advance width="1206"/>
  <unicode hex="0034"/>
  <outline>
    <contour>
      <point x="131" y="464" type="line" smooth="no"/>
      <point x="673" y="1464" type="line" smooth="no"/>
      <point x="877" y="1464" type="line" smooth="no"/>
      <point x="877" y="467" type="line" smooth="no"/>
      <point x="1132" y="467" type="line" smooth="no"/>
      <point x="1132" y="357" type="line" smooth="no"/>
      <point x="878" y="357" type="line" smooth="no"/>
      <point x="878" y="0" type="line" smooth="no"/>
      <point x="738" y="0" type="line" smooth="no"/>
      <point x="738" y="357" type="line" smooth="no"/>
      <point x="131" y="357" type="line" smooth="no"/>
    </contour>
    <contour>
      <point x="738" y="1332" type="line" smooth="no"/>
      <point x="292" y="467" type="line" smooth="no"/>
      <point x="738" y="467" type="line" smooth="no"/>
    </contour>
  </outline>
</glyph>
<glyph name="five" format="1">
  <advance width="1163"/>
  <unicode hex="0035"/>
  <outline>
    <contour>
      <point x="608" y="928" type="curve" smooth="yes"/>
      <point x="930" y="928"/>
      <point x="1072" y="703"/>
      <point x="1072" y="461" type="curve" smooth="yes"/>
      <point x="1072" y="181.273"/>
      <point x="892" y="-25"/>
      <point x="583" y="-25" type="curve" smooth="yes"/>
      <point x="366" y="-25"/>
      <point x="190" y="75.9063"/>
      <point x="99" y="309" type="curve" smooth="no"/>
      <point x="223" y="359" type="line" smooth="no"/>
      <point x="299" y="193.758"/>
      <point x="427" y="93"/>
      <point x="574" y="93" type="curve" smooth="yes"/>
      <point x="802" y="93"/>
      <point x="923" y="263.95"/>
      <point x="923" y="453" type="curve" smooth="yes"/>
      <point x="923" y="632"/>
      <point x="817" y="808"/>
      <point x="602" y="808" type="curve" smooth="yes"/>
      <point x="501" y="808"/>
      <point x="386" y="768"/>
      <point x="276" y="685" type="curve" smooth="no"/>
      <point x="185" y="744" type="line" smooth="no"/>
      <point x="281" y="1464" type="line" smooth="no"/>
      <point x="982" y="1464" type="line" smooth="no"/>
      <point x="982" y="1337" type="line" smooth="no"/>
      <point x="412" y="1337" type="line" smooth="no"/>
      <point x="343" y="856" type="line" smooth="no"/>
      <point x="348" y="858" type="line" smooth="no"/>
      <point x="438" y="908"/>
      <point x="528" y="928"/>
    </contour>
  </outline>
</glyph>
<glyph name="six" format="1">
  <advance width="1202"/>
  <unicode hex="0036"/>
  <outline>
    <contour>
      <point x="290" y="828" type="curve" smooth="no"/>
      <point x="394" y="903"/>
      <point x="509" y="946"/>
      <point x="622" y="946" type="curve" smooth="yes"/>
      <point x="869" y="946"/>
      <point x="1083" y="789"/>
      <point x="1083" y="484" type="curve" smooth="yes"/>
      <point x="1083" y="233.508"/>
      <point x="920" y="-25"/>
      <point x="623" y="-25" type="curve" smooth="yes"/>
      <point x="281" y="-25"/>
      <point x="124" y="252.383"/>
      <point x="124" y="700" type="curve" smooth="yes"/>
      <point x="124" y="1201"/>
      <point x="339" y="1491"/>
      <point x="641" y="1491" type="curve" smooth="yes"/>
      <point x="739" y="1491"/>
      <point x="847" y="1460"/>
      <point x="963" y="1396" type="curve" smooth="no"/>
      <point x="922" y="1285" type="line" smooth="no"/>
      <point x="819" y="1344.33"/>
      <point x="725" y="1374"/>
      <point x="643" y="1374" type="curve" smooth="yes"/>
      <point x="440" y="1374"/>
      <point x="312" y="1196.35"/>
    </contour>
    <contour>
      <point x="284" y="698" type="curve" smooth="no"/>
      <point x="283" y="674"/>
      <point x="283" y="630"/>
      <point x="283" y="607" type="curve" smooth="yes"/>
      <point x="283" y="350.499"/>
      <point x="353" y="93"/>
      <point x="623" y="93" type="curve" smooth="yes"/>
      <point x="789" y="93"/>
      <point x="932" y="234.634"/>
      <point x="932" y="480" type="curve" smooth="yes"/>
      <point x="932" y="732"/>
      <point x="792" y="827"/>
      <point x="621" y="827" type="curve" smooth="yes"/>
      <point x="511" y="827"/>
      <point x="384" y="773"/>
    </contour>
  </outline>
</glyph>
<glyph name="seven" format="1">
  <advance width="948"/>
  <unicode hex="0037"/>
  <outline>
    <contour>
      <point x="148" y="1352" type="line" smooth="no"/>
      <point x="136" y="1464" type="line" smooth="no"/>
      <point x="874" y="1464" type="line" smooth="no"/>
      <point x="874" y="1351" type="line" smooth="no"/>
      <point x="317" y="-1" type="line" smooth="no"/>
      <point x="159" y="1" type="line" smooth="no"/>
      <point x="722" y="1352" type="line" smooth="no"/>
    </contour>
  </outline>
</glyph>
<glyph name="eight" format="1">
  <advance width="1160"/>
  <unicode hex="0038"/>
  <outline>
    <contour>
      <point x="501" y="716" type="curve" smooth="no"/>
      <point x="347" y="623"/>
      <point x="264" y="487"/>
      <point x="264" y="367" type="curve" smooth="yes"/>
      <point x="264" y="218"/>
      <point x="378.083" y="83"/>
      <point x="583.515" y="83" type="curve" smooth="yes"/>
      <point x="740.385" y="83"/>
      <point x="914" y="182"/>
      <point x="914" y="368" type="curve" smooth="yes"/>
      <point x="914" y="586"/>
      <point x="716" y="654"/>
    </contour>
    <contour>
      <point x="106" y="351" type="curve" smooth="yes"/>
      <point x="106" y="502"/>
      <point x="194" y="640"/>
      <point x="398" y="759" type="curve" smooth="no"/>
      <point x="285" y="812"/>
      <point x="127" y="925"/>
      <point x="127" y="1101" type="curve" smooth="yes"/>
      <point x="127" y="1380"/>
      <point x="355.97" y="1492"/>
      <point x="594.242" y="1492" type="curve" smooth="yes"/>
      <point x="838.792" y="1492"/>
      <point x="1049" y="1376"/>
      <point x="1049" y="1099" type="curve" smooth="yes"/>
      <point x="1049" y="903"/>
      <point x="857" y="783"/>
      <point x="768" y="751" type="curve" smooth="no"/>
      <point x="1023" y="628"/>
      <point x="1061.81" y="505.949"/>
      <point x="1061.81" y="364.823" type="curve" smooth="yes"/>
      <point x="1061.81" y="161.034"/>
      <point x="884.971" y="-24.0039"/>
      <point x="569.34" y="-24.0039" type="curve" smooth="yes"/>
      <point x="281.751" y="-24.0039"/>
      <point x="106" y="155"/>
    </contour>
    <contour>
      <point x="659" y="792" type="curve" smooth="no"/>
      <point x="753" y="839"/>
      <point x="899" y="932"/>
      <point x="899" y="1101" type="curve" smooth="yes"/>
      <point x="899" y="1295"/>
      <point x="758.219" y="1379"/>
      <point x="594.242" y="1379" type="curve" smooth="yes"/>
      <point x="441.349" y="1379"/>
      <point x="278" y="1305"/>
      <point x="278" y="1104" type="curve" smooth="yes"/>
      <point x="278" y="914"/>
      <point x="454" y="857"/>
    </contour>
  </outline>
</glyph>
<glyph name="nine" format="1">
  <advance width="1197"/>
  <unicode hex="0039"/>
  <outline>
    <contour>
      <point x="912" y="643" type="curve" smooth="no"/>
      <point x="811" y="569"/>
      <point x="701.66" y="525"/>
      <point x="591.187" y="525" type="curve" smooth="yes"/>
      <point x="338.543" y="525"/>
      <point x="119" y="681.656"/>
      <point x="119" y="987" type="curve" smooth="yes"/>
      <point x="119" y="1237.49"/>
      <point x="256.634" y="1492.04"/>
      <point x="586.531" y="1492.04" type="curve" smooth="yes"/>
      <point x="924.362" y="1492.04"/>
      <point x="1073" y="1236"/>
      <point x="1073" y="771" type="curve" smooth="yes"/>
      <point x="1073" y="256"/>
      <point x="860.109" y="-19"/>
      <point x="555.106" y="-19" type="curve" smooth="yes"/>
      <point x="456.066" y="-19"/>
      <point x="346.371" y="11.458"/>
      <point x="227.421" y="74.8223" type="curve" smooth="no"/>
      <point x="268.228" y="186.358" type="line" smooth="no"/>
      <point x="371.871" y="129.438"/>
      <point x="464.482" y="99"/>
      <point x="550.23" y="99" type="curve" smooth="yes"/>
      <point x="754.72" y="99"/>
      <point x="890" y="279"/>
    </contour>
    <contour>
      <point x="918" y="773" type="curve" smooth="no"/>
      <point x="919" y="797"/>
      <point x="919" y="841"/>
      <point x="919" y="864" type="curve" smooth="yes"/>
      <point x="919" y="1118"/>
      <point x="847.569" y="1374"/>
      <point x="577.535" y="1374" type="curve" smooth="yes"/>
      <point x="411.858" y="1374"/>
      <point x="270" y="1233.43"/>
      <point x="270" y="991" type="curve" smooth="yes"/>
      <point x="270" y="738.777"/>
      <point x="415.079" y="644"/>
      <point x="593.137" y="644" type="curve" smooth="yes"/>
      <point x="699.683" y="644"/>
      <point x="821" y="698"/>
    </contour>
  </outline>
</glyph>
<glyph name="question" format="1">
  <advance width="1010"/>
  <unicode hex="003f"/>
  <outline>
    <contour>
      <point x="795" y="1089" type="curve" smooth="yes"/>
      <point x="795" y="841"/>
      <point x="592" y="775"/>
      <point x="366" y="358" type="curve" smooth="no"/>
      <point x="515" y="358" type="line" smooth="no"/>
      <point x="723" y="715"/>
      <point x="941" y="815"/>
      <point x="941" y="1094" type="curve" smooth="yes"/>
      <point x="941" y="1286"/>
      <point x="815.66" y="1491"/>
      <point x="497" y="1491" type="curve" smooth="yes"/>
      <point x="335" y="1491"/>
      <point x="154" y="1439"/>
      <point x="35" y="1250" type="curve" smooth="no"/>
      <point x="134" y="1177" type="line" smooth="no"/>
      <point x="164" y="1224"/>
      <point x="269" y="1380"/>
      <point x="488" y="1380" type="curve" smooth="yes"/>
      <point x="723.002" y="1380"/>
      <point x="795" y="1229.6"/>
    </contour>
    <contour>
      <point x="350" y="0" type="line" smooth="no"/>
      <point x="514" y="0" type="line" smooth="no"/>
      <point x="514" y="215" type="line" smooth="no"/>
      <point x="350" y="215" type="line" smooth="no"/>
    </contour>
  </outline>
</glyph>
<glyph name="at" format="1">
  <advance width="1704"/>
  <unicode hex="0040"/>
  <outline>
    <contour>
      <point x="1091" y="252" type="curve" smooth="no"/>
      <point x="995" y="109"/>
      <point x="893" y="67"/>
      <point x="764" y="67" type="curve" smooth="yes"/>
      <point x="549" y="67"/>
      <point x="445" y="242"/>
      <point x="445" y="425" type="curve" smooth="yes"/>
      <point x="445" y="679.482"/>
      <point x="614" y="940"/>
      <point x="866" y="940" type="curve" smooth="yes"/>
      <point x="951" y="940"/>
      <point x="1045" y="911.097"/>
      <point x="1145" y="844" type="curve" smooth="no"/>
      <point x="1170" y="917" type="line" smooth="no"/>
      <point x="1268" y="917" type="line" smooth="no"/>
      <point x="1176" y="326" type="line" smooth="no"/>
      <point x="1176" y="263"/>
      <point x="1223" y="205"/>
      <point x="1276" y="205" type="curve" smooth="yes"/>
      <point x="1373" y="205"/>
      <point x="1473" y="339"/>
      <point x="1473" y="608" type="curve" smooth="yes"/>
      <point x="1473" y="947"/>
      <point x="1189" y="1151"/>
      <point x="886" y="1151" type="curve" smooth="yes"/>
      <point x="488" y="1151"/>
      <point x="240" y="795"/>
      <point x="240" y="467" type="curve" smooth="yes"/>
      <point x="240" y="162"/>
      <point x="420" y="-120"/>
      <point x="839" y="-120" type="curve" smooth="yes"/>
      <point x="955" y="-120"/>
      <point x="1091" y="-93"/>
      <point x="1248" y="-30" type="curve" smooth="no"/>
      <point x="1288" y="-105" type="line" smooth="no"/>
      <point x="1123" y="-188"/>
      <point x="974" y="-223"/>
      <point x="842" y="-223" type="curve" smooth="yes"/>
      <point x="340" y="-223"/>
      <point x="114" y="117"/>
      <point x="114" y="476" type="curve" smooth="yes"/>
      <point x="114" y="855"/>
      <point x="393" y="1256"/>
      <point x="883" y="1256" type="curve" smooth="yes"/>
      <point x="1256" y="1256"/>
      <point x="1591" y="988"/>
      <point x="1591" y="596" type="curve" smooth="yes"/>
      <point x="1591" y="275"/>
      <point x="1442" y="112"/>
      <point x="1258" y="112" type="curve" smooth="yes"/>
      <point x="1202" y="112"/>
      <point x="1120" y="145"/>
    </contour>
    <contour>
      <point x="1123" y="763" type="line" smooth="no"/>
      <point x="1037" y="821.1"/>
      <point x="957" y="846"/>
      <point x="886" y="846" type="curve" smooth="yes"/>
      <point x="695" y="846"/>
      <point x="570" y="654.646"/>
      <point x="570" y="422" type="curve" smooth="yes"/>
      <point x="570" y="289.31"/>
      <point x="634.213" y="163"/>
      <point x="779" y="163" type="curve" smooth="yes"/>
      <point x="869" y="163"/>
      <point x="1041" y="239"/>
      <point x="1079" y="504" type="curve" smooth="no"/>
    </contour>
  </outline>
</glyph>
<glyph name="A" format="1">
  <advance width="1218"/>
  <unicode hex="0041"/>
  <outline>
    <contour>
      <point x="26" y="0" type="line" smooth="no"/>
      <point x="512" y="1464" type="line" smooth="no"/>
      <point x="704" y="1464" type="line" smooth="no"/>
      <point x="1192" y="0" type="line" smooth="no"/>
      <point x="1042" y="0" type="line" smooth="no"/>
      <point x="908" y="399" type="line" smooth="no"/>
      <point x="300" y="399" type="line" smooth="no"/>
      <point x="172" y="0" type="line" smooth="no"/>
    </contour>
    <contour>
      <point x="603" y="1362" type="curve" smooth="no"/>
      <point x="575" y="1274"/>
      <point x="537" y="1148"/>
      <point x="503" y="1040" type="curve" smooth="yes"/>
      <point x="334" y="508" type="line" smooth="no"/>
      <point x="874" y="508" type="line" smooth="no"/>
      <point x="704" y="1041" type="line" smooth="yes"/>
      <point x="670" y="1147"/>
      <point x="630" y="1274"/>
    </contour>
  </outline>
</glyph>
<glyph name="B" format="1">
  <advance width="1295"/>
  <unicode hex="0042"/>
  <outline>
    <contour>
      <point x="293" y="1357" type="line" smooth="no"/>
      <point x="293" y="837" type="line" smooth="no"/>
      <point x="521" y="837" type="line" smooth="yes"/>
      <point x="875" y="837"/>
      <point x="1031" y="851"/>
      <point x="1031" y="1100" type="curve" smooth="yes"/>
      <point x="1031" y="1348"/>
      <point x="829" y="1357"/>
      <point x="594" y="1357" type="curve" smooth="yes"/>
    </contour>
    <contour>
      <point x="294" y="730" type="line" smooth="no"/>
      <point x="294" y="107" type="line" smooth="no"/>
      <point x="608" y="107" type="line" smooth="yes"/>
      <point x="829" y="107"/>
      <point x="1069" y="121"/>
      <point x="1069" y="415" type="curve" smooth="yes"/>
      <point x="1069" y="718"/>
      <point x="849" y="730"/>
      <point x="589" y="730" type="curve" smooth="yes"/>
    </contour>
    <contour>
      <point x="148" y="0" type="line" smooth="no"/>
      <point x="148" y="1464" type="line" smooth="no"/>
      <point x="587" y="1464" type="line" smooth="yes"/>
      <point x="889" y="1464"/>
      <point x="1170" y="1416.25"/>
      <point x="1170" y="1095" type="curve" smooth="yes"/>
      <point x="1170" y="935"/>
      <point x="1095" y="824"/>
      <point x="899" y="790" type="curve" smooth="no"/>
      <point x="1114" y="747"/>
      <point x="1214" y="604"/>
      <point x="1214" y="413" type="curve" smooth="yes"/>
      <point x="1214" y="85"/>
      <point x="1009" y="0"/>
      <point x="551" y="0" type="curve" smooth="yes"/>
    </contour>
  </outline>
</glyph>
<glyph name="C" format="1">
  <advance width="1350"/>
  <unicode hex="0043"/>
  <outline>
    <contour>
      <point x="738" y="1491" type="curve" smooth="yes"/>
      <point x="996" y="1491"/>
      <point x="1197" y="1365"/>
      <point x="1269" y="1102" type="curve" smooth="no"/>
      <point x="1135" y="1071" type="line" smooth="no"/>
      <point x="1089" y="1248"/>
      <point x="964" y="1374"/>
      <point x="733" y="1374" type="curve" smooth="yes"/>
      <point x="388" y="1374"/>
      <point x="267" y="1135"/>
      <point x="267" y="738" type="curve" smooth="yes"/>
      <point x="267" y="311"/>
      <point x="371" y="93"/>
      <point x="736" y="93" type="curve" smooth="yes"/>
      <point x="959" y="93"/>
      <point x="1087" y="205"/>
      <point x="1149" y="377" type="curve" smooth="no"/>
      <point x="1274" y="338" type="line" smooth="no"/>
      <point x="1192" y="90"/>
      <point x="984" y="-25"/>
      <point x="728" y="-25" type="curve" smooth="yes"/>
      <point x="323" y="-25"/>
      <point x="114" y="195"/>
      <point x="114" y="738" type="curve" smooth="yes"/>
      <point x="114" y="1269"/>
      <point x="355" y="1491"/>
    </contour>
  </outline>
</glyph>
<glyph name="D" format="1">
  <advance width="1400"/>
  <unicode hex="0044"/>
  <outline>
    <contour>
      <point x="653" y="1350" type="curve" smooth="yes"/>
      <point x="294" y="1350" type="line" smooth="no"/>
      <point x="294" y="114" type="line" smooth="no"/>
      <point x="597" y="114" type="line" smooth="yes"/>
      <point x="1008" y="114"/>
      <point x="1144" y="289"/>
      <point x="1144" y="737" type="curve" smooth="yes"/>
      <point x="1144" y="1130"/>
      <point x="1037" y="1350"/>
    </contour>
    <contour>
      <point x="148" y="1464" type="line" smooth="no"/>
      <point x="652" y="1464" type="line" smooth="yes"/>
      <point x="1064" y="1464"/>
      <point x="1287" y="1280"/>
      <point x="1287" y="738" type="curve" smooth="yes"/>
      <point x="1287" y="203"/>
      <point x="1083" y="0"/>
      <point x="645" y="0" type="curve" smooth="yes"/>
      <point x="148" y="0" type="line" smooth="no"/>
    </contour>
    <contour>
      <point x="706" y="1464" type="line" smooth="no"/>
    </contour>
    <contour>
      <point x="700" y="1464" type="line" smooth="no"/>
    </contour>
    <contour>
      <point x="700" y="1464" type="line" smooth="no"/>
    </contour>
    <contour>
      <point x="700" y="1464" type="move" smooth="yes"/>
    </contour>
  </outline>
</glyph>
<glyph name="E" format="1">
  <advance width="1143"/>
  <unicode hex="0045"/>
  <outline>
    <contour>
      <point x="1128" y="0" type="line" smooth="no"/>
      <point x="148" y="0" type="line" smooth="no"/>
      <point x="148" y="1464" type="line" smooth="no"/>
      <point x="1117" y="1464" type="line" smooth="no"/>
      <point x="1117" y="1352" type="line" smooth="no"/>
      <point x="294" y="1352" type="line" smooth="no"/>
      <point x="294" y="838" type="line" smooth="no"/>
      <point x="1010" y="838" type="line" smooth="no"/>
      <point x="1010" y="723" type="line" smooth="no"/>
      <point x="294" y="723" type="line" smooth="no"/>
      <point x="294" y="113" type="line" smooth="no"/>
      <point x="1128" y="113" type="line" smooth="no"/>
    </contour>
  </outline>
</glyph>
<glyph name="F" format="1">
  <advance width="1094"/>
  <unicode hex="0046"/>
  <outline>
    <contour>
      <point x="1117" y="1352" type="line" smooth="no"/>
      <point x="294" y="1352" type="line" smooth="no"/>
      <point x="294" y="830" type="line" smooth="no"/>
      <point x="1009" y="830" type="line" smooth="no"/>
      <point x="1009" y="716" type="line" smooth="no"/>
      <point x="294" y="716" type="line" smooth="no"/>
      <point x="294" y="0" type="line" smooth="no"/>
      <point x="148" y="0" type="line" smooth="no"/>
      <point x="148" y="1464" type="line" smooth="no"/>
      <point x="1117" y="1464" type="line" smooth="no"/>
    </contour>
  </outline>
</glyph>
<glyph name="G" format="1">
  <advance width="1374"/>
  <unicode hex="0047"/>
  <outline>
    <contour>
      <point x="735" y="1491" type="curve" smooth="yes"/>
      <point x="958" y="1491"/>
      <point x="1151" y="1381"/>
      <point x="1236" y="1150" type="curve" smooth="no"/>
      <point x="1114" y="1096" type="line" smooth="no"/>
      <point x="1046" y="1280"/>
      <point x="915" y="1374"/>
      <point x="734" y="1374" type="curve" smooth="yes"/>
      <point x="400" y="1374"/>
      <point x="267" y="1149"/>
      <point x="267" y="721" type="curve" smooth="yes"/>
      <point x="267" y="319"/>
      <point x="381" y="93"/>
      <point x="719" y="93" type="curve" smooth="yes"/>
      <point x="885" y="93"/>
      <point x="1104" y="203"/>
      <point x="1104" y="444" type="curve" smooth="yes"/>
      <point x="1104" y="664" type="line" smooth="no"/>
      <point x="732" y="664" type="line" smooth="no"/>
      <point x="732" y="789" type="line" smooth="no"/>
      <point x="1248" y="789" type="line" smooth="no"/>
      <point x="1248" y="581" type="line" smooth="yes"/>
      <point x="1248" y="428"/>
      <point x="1238" y="0"/>
      <point x="1238" y="0" type="curve" smooth="no"/>
      <point x="1145" y="0" type="line" smooth="no"/>
      <point x="1113" y="191" type="line" smooth="no"/>
      <point x="1040" y="68"/>
      <point x="885" y="-24"/>
      <point x="701" y="-24" type="curve" smooth="yes"/>
      <point x="360" y="-24"/>
      <point x="114" y="165"/>
      <point x="114" y="722" type="curve" smooth="yes"/>
      <point x="114" y="1271"/>
      <point x="360" y="1491"/>
    </contour>
  </outline>
</glyph>
<glyph name="H" format="1">
  <advance width="1457"/>
  <unicode hex="0048"/>
  <outline>
    <contour>
      <point x="1164" y="836" type="line" smooth="no"/>
      <point x="1164" y="1464" type="line" smooth="no"/>
      <point x="1309" y="1464" type="line" smooth="no"/>
      <point x="1309" y="0" type="line" smooth="no"/>
      <point x="1164" y="0" type="line" smooth="no"/>
      <point x="1164" y="720" type="line" smooth="no"/>
      <point x="294" y="720" type="line" smooth="no"/>
      <point x="294" y="0" type="line" smooth="no"/>
      <point x="148" y="0" type="line" smooth="no"/>
      <point x="148" y="1464" type="line" smooth="no"/>
      <point x="294" y="1464" type="line" smooth="no"/>
      <point x="294" y="836" type="line" smooth="no"/>
    </contour>
  </outline>
</glyph>
<glyph name="K" format="1">
  <advance width="1252"/>
  <unicode hex="004b"/>
  <outline>
    <contour>
      <point x="1180" y="1466" type="line" smooth="no"/>
      <point x="665" y="926" type="line" smooth="no"/>
      <point x="1244" y="0" type="line" smooth="no"/>
      <point x="1077" y="0" type="line" smooth="no"/>
      <point x="562" y="828" type="line" smooth="no"/>
      <point x="294" y="553" type="line" smooth="no"/>
      <point x="294" y="0" type="line" smooth="no"/>
      <point x="148" y="0" type="line" smooth="no"/>
      <point x="148" y="1466" type="line" smooth="no"/>
      <point x="294" y="1466" type="line" smooth="no"/>
      <point x="294" y="726" type="line" smooth="no"/>
      <point x="1003" y="1466" type="line" smooth="no"/>
    </contour>
  </outline>
</glyph>
<glyph name="L" format="1">
  <advance width="1020"/>
  <unicode hex="004c"/>
  <outline>
    <contour>
      <point x="1041" y="0" type="line" smooth="no"/>
      <point x="148" y="0" type="line" smooth="no"/>
      <point x="148" y="1464" type="line" smooth="no"/>
      <point x="294" y="1464" type="line" smooth="no"/>
      <point x="294" y="113" type="line" smooth="no"/>
      <point x="1041" y="113" type="line" smooth="no"/>
    </contour>
  </outline>
</glyph>
<glyph name="M" format="1">
  <advance width="1645"/>
  <unicode hex="004d"/>
  <outline>
    <contour>
      <point x="148" y="0" type="line" smooth="no"/>
      <point x="148" y="1463" type="line" smooth="no"/>
      <point x="359" y="1463" type="line" smooth="no"/>
      <point x="826" y="405" type="line" smooth="no"/>
      <point x="1306" y="1462" type="line" smooth="no"/>
      <point x="1497" y="1462" type="line" smooth="no"/>
      <point x="1497" y="0" type="line" smooth="no"/>
      <point x="1363" y="0" type="line" smooth="no"/>
      <point x="1363" y="1275" type="line" smooth="no"/>
      <point x="888" y="250" type="line" smooth="no"/>
      <point x="753" y="250" type="line" smooth="no"/>
      <point x="287" y="1281" type="line" smooth="no"/>
      <point x="287" y="0" type="line" smooth="no"/>
    </contour>
  </outline>
</glyph>
<glyph name="N" format="1">
  <advance width="1491"/>
  <unicode hex="004e"/>
  <outline>
    <contour>
      <point x="148" y="0" type="line" smooth="no"/>
      <point x="148" y="1464" type="line" smooth="no"/>
      <point x="311" y="1464" type="line" smooth="no"/>
      <point x="1214" y="221" type="line" smooth="no"/>
      <point x="1214" y="614" type="line" smooth="no"/>
      <point x="1214" y="1464" type="line" smooth="no"/>
      <point x="1343" y="1464" type="line" smooth="no"/>
      <point x="1343" y="0" type="line" smooth="no"/>
      <point x="1211" y="0" type="line" smooth="no"/>
      <point x="281" y="1290" type="line" smooth="no"/>
      <point x="281" y="875" type="line" smooth="yes"/>
      <point x="281" y="0" type="line" smooth="no"/>
    </contour>
  </outline>
</glyph>
<glyph name="P" format="1">
  <advance width="1253"/>
  <unicode hex="0050"/>
  <outline>
    <contour>
      <point x="148" y="0" type="line" smooth="no"/>
      <point x="148" y="1464" type="line" smooth="no"/>
      <point x="579" y="1464" type="line" smooth="yes"/>
      <point x="1055" y="1464"/>
      <point x="1231" y="1360"/>
      <point x="1231" y="1063" type="curve" smooth="yes"/>
      <point x="1231" y="724"/>
      <point x="1032" y="635"/>
      <point x="520" y="635" type="curve" smooth="yes"/>
      <point x="298" y="635" type="line" smooth="no"/>
      <point x="298" y="0" type="line" smooth="no"/>
    </contour>
    <contour>
      <point x="304" y="1350" type="line" smooth="no"/>
      <point x="304" y="748" type="line" smooth="no"/>
      <point x="576" y="748" type="line" smooth="no"/>
      <point x="939" y="749.003"/>
      <point x="1083" y="807.193"/>
      <point x="1083" y="1055" type="curve" smooth="yes"/>
      <point x="1083" y="1304"/>
      <point x="939" y="1350"/>
      <point x="556" y="1350" type="curve" smooth="yes"/>
    </contour>
  </outline>
</glyph>
<glyph name="Q" format="1">
  <advance width="1449"/>
  <unicode hex="0051"/>
  <outline>
    <contour>
      <point x="1266" y="-345" type="line" smooth="no"/>
      <point x="1016" y="30" type="line" smooth="no"/>
      <point x="1016.14" y="30.1602" type="line" smooth="no"/>
      <point x="933.128" y="-7.48621"/>
      <point x="834.65" y="-25"/>
      <point x="722" y="-25" type="curve" smooth="yes"/>
      <point x="339" y="-25"/>
      <point x="114" y="186"/>
      <point x="114" y="740" type="curve" smooth="yes"/>
      <point x="114" y="1282"/>
      <point x="344" y="1491"/>
      <point x="723" y="1491" type="curve" smooth="yes"/>
      <point x="1103" y="1491"/>
      <point x="1335" y="1281"/>
      <point x="1335" y="741" type="curve" smooth="yes"/>
      <point x="1335" y="419.082"/>
      <point x="1258.39" y="211.043"/>
      <point x="1115.92" y="94.1787" type="curve" smooth="no"/>
      <point x="1374" y="-263" type="line" smooth="no"/>
    </contour>
    <contour>
      <point x="722" y="1374" type="curve" smooth="yes"/>
      <point x="370" y="1374"/>
      <point x="267" y="1130"/>
      <point x="267" y="741" type="curve" smooth="yes"/>
      <point x="267" y="302"/>
      <point x="385" y="93"/>
      <point x="723" y="93" type="curve" smooth="yes"/>
      <point x="1062" y="93"/>
      <point x="1180" y="298"/>
      <point x="1180" y="740" type="curve" smooth="yes"/>
      <point x="1180" y="1130"/>
      <point x="1076" y="1374"/>
    </contour>
  </outline>
</glyph>
<glyph name="R" format="1">
  <advance width="1286"/>
  <unicode hex="0052"/>
  <outline>
    <contour>
      <point x="1214" y="1075" type="curve" smooth="yes"/>
      <point x="1214" y="876"/>
      <point x="1114" y="752"/>
      <point x="898" y="695" type="curve" smooth="no"/>
      <point x="1238" y="0" type="line" smooth="no"/>
      <point x="1082" y="0" type="line" smooth="no"/>
      <point x="750" y="673" type="line" smooth="no"/>
      <point x="293" y="673" type="line" smooth="no"/>
      <point x="293" y="0" type="line" smooth="no"/>
      <point x="148" y="0" type="line" smooth="no"/>
      <point x="148" y="1464" type="line" smooth="no"/>
      <point x="677" y="1464" type="line" smooth="yes"/>
      <point x="1064" y="1464"/>
      <point x="1214" y="1337"/>
    </contour>
    <contour>
      <point x="293" y="1352" type="line" smooth="no"/>
      <point x="293" y="786" type="line" smooth="no"/>
      <point x="644" y="786" type="line" smooth="yes"/>
      <point x="858" y="786"/>
      <point x="1065" y="819"/>
      <point x="1065" y="1073" type="curve" smooth="yes"/>
      <point x="1065" y="1330.31"/>
      <point x="869" y="1352"/>
      <point x="668" y="1352" type="curve" smooth="yes"/>
    </contour>
  </outline>
</glyph>
<glyph name="S" format="1">
  <advance width="1216"/>
  <unicode hex="0053"/>
  <outline>
    <contour>
      <point x="618" y="1482" type="curve" smooth="yes"/>
      <point x="850" y="1482"/>
      <point x="1009" y="1411"/>
      <point x="1127" y="1231" type="curve" smooth="no"/>
      <point x="1019" y="1151" type="line" smooth="no"/>
      <point x="939" y="1293"/>
      <point x="797" y="1364"/>
      <point x="639" y="1364" type="curve" smooth="yes"/>
      <point x="446" y="1364"/>
      <point x="284" y="1298"/>
      <point x="284" y="1128" type="curve" smooth="yes"/>
      <point x="284" y="931"/>
      <point x="540" y="895"/>
      <point x="713" y="829" type="curve" smooth="yes"/>
      <point x="982" y="726"/>
      <point x="1158" y="646"/>
      <point x="1158" y="393" type="curve" smooth="yes"/>
      <point x="1158" y="126"/>
      <point x="941" y="-25"/>
      <point x="615" y="-25" type="curve" smooth="yes"/>
      <point x="390" y="-25"/>
      <point x="101" y="69"/>
      <point x="45" y="373" type="curve" smooth="no"/>
      <point x="168" y="426" type="line" smooth="no"/>
      <point x="228" y="205"/>
      <point x="377" y="101"/>
      <point x="624" y="101" type="curve" smooth="yes"/>
      <point x="803" y="101"/>
      <point x="1005" y="167"/>
      <point x="1005" y="388" type="curve" smooth="yes"/>
      <point x="1005" y="584"/>
      <point x="849" y="633"/>
      <point x="565" y="731" type="curve" smooth="yes"/>
      <point x="355" y="804"/>
      <point x="131" y="877"/>
      <point x="131" y="1116" type="curve" smooth="yes"/>
      <point x="131" y="1369"/>
      <point x="372" y="1482"/>
    </contour>
  </outline>
</glyph>
<glyph name="T" format="1">
  <advance width="1119"/>
  <unicode hex="0054"/>
  <outline>
    <contour>
      <point x="9" y="1352" type="line" smooth="no"/>
      <point x="9" y="1465" type="line" smooth="no"/>
      <point x="1110" y="1465" type="line" smooth="no"/>
      <point x="1110" y="1352" type="line" smooth="no"/>
      <point x="636" y="1352" type="line" smooth="no"/>
      <point x="636" y="0" type="line" smooth="no"/>
      <point x="483" y="0" type="line" smooth="no"/>
      <point x="483" y="1352" type="line" smooth="no"/>
    </contour>
  </outline>
</glyph>
<glyph name="U" format="1">
  <advance width="1346"/>
  <unicode hex="0055"/>
  <outline>
    <contour>
      <point x="123" y="574" type="curve" smooth="yes"/>
      <point x="123" y="1464" type="line" smooth="no"/>
      <point x="283" y="1464" type="line" smooth="no"/>
      <point x="283" y="598" type="line" smooth="yes"/>
      <point x="283" y="306"/>
      <point x="348" y="98"/>
      <point x="676" y="98" type="curve" smooth="yes"/>
      <point x="1002" y="98"/>
      <point x="1066" y="306"/>
      <point x="1066" y="598" type="curve" smooth="yes"/>
      <point x="1066" y="1464" type="line" smooth="no"/>
      <point x="1223" y="1464" type="line" smooth="no"/>
      <point x="1223" y="581" type="line" smooth="yes"/>
      <point x="1223" y="161"/>
      <point x="1046" y="-25"/>
      <point x="670" y="-25" type="curve" smooth="yes"/>
      <point x="308" y="-25"/>
      <point x="123" y="152"/>
    </contour>
  </outline>
</glyph>
<glyph name="V" format="1">
  <advance width="1164"/>
  <unicode hex="0056"/>
  <outline>
    <contour>
      <point x="513" y="0" type="line" smooth="no"/>
      <point x="12" y="1464" type="line" smooth="no"/>
      <point x="167" y="1464" type="line" smooth="no"/>
      <point x="460" y="596" type="line" smooth="yes"/>
      <point x="502" y="469"/>
      <point x="545" y="342"/>
      <point x="586" y="216" type="curve" smooth="no"/>
      <point x="628" y="343"/>
      <point x="673" y="469"/>
      <point x="716" y="596" type="curve" smooth="yes"/>
      <point x="1004" y="1464" type="line" smooth="no"/>
      <point x="1152" y="1464" type="line" smooth="no"/>
      <point x="651" y="0" type="line" smooth="no"/>
    </contour>
  </outline>
</glyph>
<glyph name="W" format="1">
  <advance width="1797"/>
  <unicode hex="0057"/>
  <outline>
    <contour>
      <point x="427" y="0" type="line" smooth="no"/>
      <point x="12" y="1464" type="line" smooth="no"/>
      <point x="164" y="1464" type="line" smooth="no"/>
      <point x="410" y="576.557"/>
      <point x="446" y="394.261"/>
      <point x="490" y="234" type="curve" smooth="no"/>
      <point x="538" y="395.262"/>
      <point x="596" y="577.559"/>
      <point x="865" y="1464" type="curve" smooth="no"/>
      <point x="969" y="1464" type="line" smooth="no"/>
      <point x="1080" y="1055.34"/>
      <point x="1206" y="626.657"/>
      <point x="1316" y="217" type="curve" smooth="no"/>
      <point x="1426" y="619.969"/>
      <point x="1532" y="1056.02"/>
      <point x="1646" y="1464" type="curve" smooth="no"/>
      <point x="1785" y="1464" type="line" smooth="no"/>
      <point x="1370" y="0" type="line" smooth="no"/>
      <point x="1244" y="0" type="line" smooth="no"/>
      <point x="976" y="942"/>
      <point x="939" y="1069"/>
      <point x="907" y="1187" type="curve" smooth="no"/>
      <point x="875" y="1080"/>
      <point x="840" y="974"/>
      <point x="540" y="0" type="curve" smooth="no"/>
    </contour>
  </outline>
</glyph>
<glyph name="Z" format="1">
  <advance width="1176"/>
  <unicode hex="005a"/>
  <outline>
    <contour>
      <point x="130" y="1356" type="line" smooth="no"/>
      <point x="130" y="1464" type="line" smooth="no"/>
      <point x="1136" y="1464" type="line" smooth="no"/>
      <point x="1136" y="1383" type="line" smooth="no"/>
      <point x="228" y="107" type="line" smooth="no"/>
      <point x="1141" y="107" type="line" smooth="no"/>
      <point x="1134" y="0" type="line" smooth="no"/>
      <point x="47" y="0" type="line" smooth="no"/>
      <point x="47" y="98" type="line" smooth="no"/>
      <point x="945" y="1356" type="line" smooth="no"/>
    </contour>
  </outline>
</glyph>
<glyph name="asciicircum" format="1">
  <advance width="1053"/>
  <unicode hex="005e"/>
  <outline>
    <contour>
      <point x="241" y="100" type="line" smooth="no"/>
      <point x="103" y="100" type="line" smooth="no"/>
      <point x="469" y="999" type="line" smooth="no"/>
      <point x="595" y="999" type="line" smooth="no"/>
      <point x="950" y="100" type="line" smooth="no"/>
      <point x="798" y="100" type="line" smooth="no"/>
      <point x="525" y="837" type="line" smooth="no"/>
    </contour>
  </outline>
</glyph>
<glyph name="grave" format="1">
  <advance width="496"/>
  <unicode hex="0060"/>
  <outline>
    <contour>
      <point x="47" y="1492" type="line" smooth="no"/>
      <point x="242" y="1492" type="line" smooth="no"/>
      <point x="447" y="1173" type="line" smooth="no"/>
      <point x="353" y="1172" type="line" smooth="no"/>
    </contour>
  </outline>
</glyph>
<glyph name="a" format="1">
  <advance width="1019"/>
  <unicode hex="0061"/>
  <outline>
    <contour>
      <point x="746" y="219" type="line" smooth="no"/>
      <point x="656" y="143"/>
      <point x="535" y="73"/>
      <point x="414" y="73" type="curve" smooth="yes"/>
      <point x="281.724" y="73"/>
      <point x="224" y="143.866"/>
      <point x="224" y="265" type="curve" smooth="yes"/>
      <point x="224" y="413"/>
      <point x="369" y="447"/>
      <point x="648" y="490" type="curve" smooth="yes"/>
      <point x="746" y="505" type="line" smooth="no"/>
    </contour>
    <contour>
      <point x="771" y="0" type="line" smooth="no"/>
      <point x="888" y="0" type="line" smooth="no"/>
      <point x="888" y="673" type="line" smooth="yes"/>
      <point x="888" y="927"/>
      <point x="754" y="1044"/>
      <point x="512" y="1044" type="curve" smooth="yes"/>
      <point x="360" y="1044"/>
      <point x="219" y="998"/>
      <point x="132" y="888" type="curve" smooth="no"/>
      <point x="132" y="888"/>
      <point x="217" y="808"/>
      <point x="217" y="807" type="curve" smooth="no"/>
      <point x="284" y="890"/>
      <point x="390" y="935"/>
      <point x="504" y="935" type="curve" smooth="yes"/>
      <point x="676" y="935"/>
      <point x="746" y="871"/>
      <point x="746" y="643" type="curve" smooth="yes"/>
      <point x="746" y="601" type="line" smooth="no"/>
      <point x="647" y="586" type="line" smooth="yes"/>
      <point x="338" y="539"/>
      <point x="90" y="501"/>
      <point x="90" y="245" type="curve" smooth="yes"/>
      <point x="90" y="67"/>
      <point x="228" y="-24"/>
      <point x="389" y="-24" type="curve" smooth="yes"/>
      <point x="526" y="-24"/>
      <point x="643" y="25"/>
      <point x="754" y="116" type="curve" smooth="no"/>
    </contour>
  </outline>
</glyph>
<glyph name="b" format="1">
  <advance width="1078"/>
  <unicode hex="0062"/>
  <outline>
    <contour>
      <point x="563" y="940" type="curve" smooth="yes"/>
      <point x="733" y="940"/>
      <point x="840" y="757"/>
      <point x="840" y="520" type="curve" smooth="yes"/>
      <point x="840" y="254"/>
      <point x="737" y="77"/>
      <point x="565" y="77" type="curve" smooth="yes"/>
      <point x="333" y="77"/>
      <point x="263" y="273"/>
      <point x="263" y="522" type="curve" smooth="yes"/>
      <point x="263" y="848"/>
      <point x="433" y="940"/>
    </contour>
    <contour>
      <point x="125" y="0" type="line" smooth="no"/>
      <point x="238" y="0" type="line" smooth="no"/>
      <point x="257" y="161" type="line" smooth="no"/>
      <point x="308" y="39"/>
      <point x="436" y="-24"/>
      <point x="580" y="-24" type="curve" smooth="yes"/>
      <point x="843" y="-24"/>
      <point x="984" y="191"/>
      <point x="984" y="502" type="curve" smooth="yes"/>
      <point x="984" y="840"/>
      <point x="837" y="1044"/>
      <point x="589" y="1044" type="curve" smooth="yes"/>
      <point x="449" y="1044"/>
      <point x="327" y="985"/>
      <point x="268" y="865" type="curve" smooth="no"/>
      <point x="268" y="1102" type="line" smooth="no"/>
      <point x="268" y="1493" type="line" smooth="no"/>
      <point x="125" y="1493" type="line" smooth="no"/>
    </contour>
  </outline>
</glyph>
<glyph name="c" format="1">
  <advance width="981"/>
  <unicode hex="0063"/>
  <outline>
    <contour>
      <point x="92" y="509" type="curve" smooth="yes"/>
      <point x="92" y="817"/>
      <point x="242" y="1044"/>
      <point x="538" y="1044" type="curve" smooth="yes"/>
      <point x="692" y="1044"/>
      <point x="855" y="975"/>
      <point x="911" y="733" type="curve" smooth="no"/>
      <point x="792" y="701" type="line" smooth="no"/>
      <point x="750" y="862"/>
      <point x="674" y="940"/>
      <point x="544" y="940" type="curve" smooth="yes"/>
      <point x="332" y="940"/>
      <point x="237" y="767"/>
      <point x="237" y="512" type="curve" smooth="yes"/>
      <point x="237" y="260"/>
      <point x="323" y="81"/>
      <point x="531" y="81" type="curve" smooth="yes"/>
      <point x="664" y="81"/>
      <point x="753" y="160"/>
      <point x="799" y="316" type="curve" smooth="no"/>
      <point x="908" y="282" type="line" smooth="no"/>
      <point x="858" y="57"/>
      <point x="687" y="-24"/>
      <point x="528" y="-24" type="curve" smooth="yes"/>
      <point x="236" y="-24"/>
      <point x="92" y="198"/>
    </contour>
  </outline>
</glyph>
<glyph name="d" format="1">
  <advance width="1066"/>
  <unicode hex="0064"/>
  <outline>
    <contour>
      <point x="90" y="500" type="curve" smooth="yes"/>
      <point x="90" y="832"/>
      <point x="228" y="1044"/>
      <point x="482" y="1044" type="curve" smooth="yes"/>
      <point x="627" y="1044"/>
      <point x="735" y="991"/>
      <point x="792" y="863" type="curve" smooth="no"/>
      <point x="792" y="1474" type="line" smooth="no"/>
      <point x="935" y="1474" type="line" smooth="no"/>
      <point x="935" y="0" type="line" smooth="no"/>
      <point x="821" y="0" type="line" smooth="no"/>
      <point x="802" y="172" type="line" smooth="no"/>
      <point x="750" y="51"/>
      <point x="627" y="-24"/>
      <point x="486" y="-24" type="curve" smooth="yes"/>
      <point x="237" y="-24"/>
      <point x="90" y="188"/>
    </contour>
    <contour>
      <point x="504" y="81" type="curve" smooth="yes"/>
      <point x="634" y="81"/>
      <point x="798" y="127"/>
      <point x="798" y="499" type="curve" smooth="yes"/>
      <point x="798" y="748"/>
      <point x="715" y="940"/>
      <point x="502" y="940" type="curve" smooth="yes"/>
      <point x="330" y="940"/>
      <point x="235" y="762"/>
      <point x="235" y="496" type="curve" smooth="yes"/>
      <point x="235" y="259"/>
      <point x="334" y="81"/>
    </contour>
  </outline>
</glyph>
<glyph name="e" format="1">
  <advance width="1027"/>
  <unicode hex="0065"/>
  <outline>
    <contour>
      <point x="532" y="1044" type="curve" smooth="yes"/>
      <point x="817" y="1044"/>
      <point x="939" y="836"/>
      <point x="939" y="564" type="curve" smooth="yes"/>
      <point x="939" y="555"/>
      <point x="938" y="521"/>
      <point x="936" y="504" type="curve" smooth="no"/>
      <point x="237" y="504" type="line" smooth="no"/>
      <point x="237" y="279"/>
      <point x="321" y="81"/>
      <point x="537" y="81" type="curve" smooth="yes"/>
      <point x="675" y="81"/>
      <point x="760" y="149"/>
      <point x="795" y="258" type="curve" smooth="yes"/>
      <point x="796" y="258"/>
      <point x="905" y="234"/>
      <point x="905" y="234" type="curve" smooth="no"/>
      <point x="858" y="57"/>
      <point x="697" y="-23"/>
      <point x="541" y="-24" type="curve" smooth="yes"/>
      <point x="537" y="-24" type="line" smooth="yes"/>
      <point x="224" y="-24"/>
      <point x="92" y="232"/>
      <point x="92" y="512" type="curve" smooth="yes"/>
      <point x="92" y="823"/>
      <point x="250" y="1044"/>
    </contour>
    <contour>
      <point x="802" y="597" type="line" smooth="no"/>
      <point x="801" y="807"/>
      <point x="719" y="941"/>
      <point x="528" y="941" type="curve" smooth="yes"/>
      <point x="344" y="941"/>
      <point x="255" y="784"/>
      <point x="240" y="597" type="curve" smooth="no"/>
    </contour>
  </outline>
</glyph>
<glyph name="f" format="1">
  <advance width="623"/>
  <unicode hex="0066"/>
  <outline>
    <contour>
      <point x="460" y="1365" type="curve" smooth="yes"/>
      <point x="360" y="1365"/>
      <point x="359" y="1275"/>
      <point x="359" y="1137" type="curve" smooth="yes"/>
      <point x="359" y="1023" type="line" smooth="no"/>
      <point x="559" y="1023" type="line" smooth="no"/>
      <point x="559" y="917" type="line" smooth="no"/>
      <point x="359" y="917" type="line" smooth="no"/>
      <point x="359" y="-1" type="line" smooth="no"/>
      <point x="217" y="-1" type="line" smooth="no"/>
      <point x="217" y="917" type="line" smooth="no"/>
      <point x="44" y="917" type="line" smooth="no"/>
      <point x="44" y="1023" type="line" smooth="no"/>
      <point x="217" y="1023" type="line" smooth="no"/>
      <point x="217" y="1140" type="line" smooth="yes"/>
      <point x="217" y="1361"/>
      <point x="276" y="1471"/>
      <point x="451" y="1471" type="curve" smooth="yes"/>
      <point x="509" y="1471"/>
      <point x="563" y="1454"/>
      <point x="607" y="1430" type="curve" smooth="no"/>
      <point x="573" y="1338" type="line" smooth="no"/>
      <point x="533" y="1353"/>
      <point x="492" y="1365"/>
    </contour>
  </outline>
</glyph>
<glyph name="g" format="1">
  <advance width="1077"/>
  <unicode hex="0067"/>
  <outline>
    <contour>
      <point x="818" y="543" type="line" smooth="yes"/>
      <point x="818" y="886"/>
      <point x="632" y="940"/>
      <point x="518" y="940" type="curve" smooth="yes"/>
      <point x="315" y="940"/>
      <point x="236" y="737"/>
      <point x="236" y="530" type="curve" smooth="yes"/>
      <point x="236" y="239"/>
      <point x="345" y="81"/>
      <point x="513" y="81" type="curve" smooth="yes"/>
      <point x="647" y="81"/>
      <point x="818" y="148"/>
      <point x="818" y="509" type="curve" smooth="yes"/>
    </contour>
    <contour>
      <point x="527" y="-429" type="curve" smooth="yes"/>
      <point x="428" y="-429"/>
      <point x="250" y="-410"/>
      <point x="164" y="-267" type="curve" smooth="no"/>
      <point x="247" y="-188" type="line" smooth="no"/>
      <point x="306" y="-283"/>
      <point x="404" y="-320"/>
      <point x="534" y="-320" type="curve" smooth="yes"/>
      <point x="729" y="-320"/>
      <point x="818" y="-187"/>
      <point x="818" y="28" type="curve" smooth="yes"/>
      <point x="818" y="130" type="line" smooth="no"/>
      <point x="749" y="39"/>
      <point x="653" y="-24"/>
      <point x="508" y="-24" type="curve" smooth="yes"/>
      <point x="240" y="-24"/>
      <point x="94" y="205"/>
      <point x="94" y="526" type="curve" smooth="yes"/>
      <point x="94" y="823"/>
      <point x="234" y="1044"/>
      <point x="502" y="1044" type="curve" smooth="yes"/>
      <point x="634" y="1044"/>
      <point x="748" y="988"/>
      <point x="829" y="891" type="curve" smooth="no"/>
      <point x="837" y="1023" type="line" smooth="no"/>
      <point x="951" y="1023" type="line" smooth="no"/>
      <point x="951" y="20" type="line" smooth="yes"/>
      <point x="951" y="-234.598"/>
      <point x="810.057" y="-429"/>
    </contour>
  </outline>
</glyph>
<glyph name="h" format="1">
  <advance width="1101"/>
  <unicode hex="0068"/>
  <outline>
    <contour>
      <point x="602" y="940" type="curve" smooth="yes"/>
      <point x="348" y="940"/>
      <point x="272" y="723"/>
      <point x="272" y="483" type="curve" smooth="yes"/>
      <point x="272" y="0" type="line" smooth="no"/>
      <point x="130" y="0" type="line" smooth="no"/>
      <point x="130" y="1473" type="line" smooth="no"/>
      <point x="272" y="1473" type="line" smooth="no"/>
      <point x="272" y="1053" type="line" smooth="no"/>
      <point x="272" y="862" type="line" smooth="no"/>
      <point x="360" y="999"/>
      <point x="490" y="1044"/>
      <point x="623" y="1044" type="curve" smooth="yes"/>
      <point x="949" y="1044"/>
      <point x="980" y="784"/>
      <point x="980" y="583" type="curve" smooth="yes"/>
      <point x="980" y="0" type="line" smooth="no"/>
      <point x="838" y="0" type="line" smooth="no"/>
      <point x="838" y="594" type="line" smooth="yes"/>
      <point x="838" y="807"/>
      <point x="786" y="940"/>
    </contour>
  </outline>
</glyph>
<glyph name="i" format="1">
  <advance width="410"/>
  <unicode hex="0069"/>
  <outline>
    <contour>
      <point x="135" y="1242" type="line" smooth="no"/>
      <point x="135" y="1421" type="line" smooth="no"/>
      <point x="276" y="1421" type="line" smooth="no"/>
      <point x="276" y="1242" type="line" smooth="no"/>
    </contour>
    <contour>
      <point x="137" y="0" type="line" smooth="no"/>
      <point x="137" y="1023" type="line" smooth="no"/>
      <point x="279" y="1023" type="line" smooth="no"/>
      <point x="279" y="0" type="line" smooth="no"/>
    </contour>
  </outline>
</glyph>
<glyph name="j" format="1">
  <advance width="482"/>
  <unicode hex="006a"/>
  <outline>
    <contour>
      <point x="214" y="-91" type="curve" smooth="yes"/>
      <point x="214" y="1023" type="line" smooth="no"/>
      <point x="356" y="1023" type="line" smooth="no"/>
      <point x="356" y="-12" type="line" smooth="yes"/>
      <point x="356" y="-217"/>
      <point x="329" y="-325"/>
      <point x="137" y="-325" type="curve" smooth="yes"/>
      <point x="86" y="-325"/>
      <point x="23" y="-312"/>
      <point x="-25" y="-284" type="curve" smooth="no"/>
      <point x="-1" y="-177" type="line" smooth="no"/>
      <point x="37" y="-191"/>
      <point x="85" y="-208"/>
      <point x="118" y="-208" type="curve" smooth="yes"/>
      <point x="177" y="-208"/>
      <point x="214" y="-182"/>
    </contour>
    <contour>
      <point x="216" y="1242" type="line" smooth="no"/>
      <point x="216" y="1421" type="line" smooth="no"/>
      <point x="357" y="1421" type="line" smooth="no"/>
      <point x="357" y="1242" type="line" smooth="no"/>
    </contour>
  </outline>
</glyph>
<glyph name="k" format="1">
  <advance width="1008"/>
  <unicode hex="006b"/>
  <outline>
    <contour>
      <point x="797" y="1023" type="line" smooth="no"/>
      <point x="959" y="1023" type="line" smooth="no"/>
      <point x="578" y="651" type="line" smooth="no"/>
      <point x="1018" y="0" type="line" smooth="no"/>
      <point x="858" y="0" type="line" smooth="no"/>
      <point x="485" y="565" type="line" smooth="no"/>
      <point x="272" y="369" type="line" smooth="no"/>
      <point x="272" y="0" type="line" smooth="no"/>
      <point x="130" y="0" type="line" smooth="no"/>
      <point x="130" y="1477" type="line" smooth="no"/>
      <point x="271" y="1477" type="line" smooth="no"/>
      <point x="271" y="511" type="line" smooth="no"/>
    </contour>
  </outline>
</glyph>
<glyph name="l" format="1">
  <advance width="419"/>
  <unicode hex="006c"/>
  <outline>
    <contour>
      <point x="134" y="0" type="line" smooth="no"/>
      <point x="134" y="1474" type="line" smooth="no"/>
      <point x="276" y="1474" type="line" smooth="no"/>
      <point x="276" y="0" type="line" smooth="no"/>
    </contour>
  </outline>
</glyph>
<glyph name="m" format="1">
  <advance width="1663"/>
  <unicode hex="006d"/>
  <outline>
    <contour>
      <point x="268" y="583" type="curve" smooth="yes"/>
      <point x="268" y="0" type="line" smooth="no"/>
      <point x="126" y="0" type="line" smooth="no"/>
      <point x="126" y="1023" type="line" smooth="no"/>
      <point x="263" y="1023" type="line" smooth="no"/>
      <point x="267" y="861" type="line" smooth="no"/>
      <point x="347" y="998"/>
      <point x="475" y="1044"/>
      <point x="593" y="1044" type="curve" smooth="yes"/>
      <point x="750" y="1044"/>
      <point x="843" y="961"/>
      <point x="879" y="832" type="curve" smooth="no"/>
      <point x="951" y="982"/>
      <point x="1091" y="1044"/>
      <point x="1224" y="1044" type="curve" smooth="yes"/>
      <point x="1507.11" y="1044"/>
      <point x="1542" y="792.053"/>
      <point x="1542" y="576" type="curve" smooth="yes"/>
      <point x="1542" y="0" type="line" smooth="no"/>
      <point x="1400" y="0" type="line" smooth="no"/>
      <point x="1400" y="607" type="line" smooth="yes"/>
      <point x="1400" y="802"/>
      <point x="1356" y="940"/>
      <point x="1199" y="940" type="curve" smooth="yes"/>
      <point x="1023" y="940"/>
      <point x="904" y="761"/>
      <point x="904" y="591" type="curve" smooth="yes"/>
      <point x="904" y="0" type="line" smooth="no"/>
      <point x="762" y="0" type="line" smooth="no"/>
      <point x="762" y="607" type="line" smooth="yes"/>
      <point x="762" y="805"/>
      <point x="717" y="940"/>
      <point x="563" y="940" type="curve" smooth="yes"/>
      <point x="381" y="940"/>
      <point x="268" y="757"/>
    </contour>
  </outline>
</glyph>
<glyph name="n" format="1">
  <advance width="1086"/>
  <unicode hex="006e"/>
  <outline>
    <contour>
      <point x="127" y="0" type="line" smooth="no"/>
      <point x="127" y="1023" type="line" smooth="no"/>
      <point x="265" y="1023" type="line" smooth="no"/>
      <point x="265" y="1023"/>
      <point x="264.677" y="829.054"/>
      <point x="265" y="830" type="curve" smooth="yes"/>
      <point x="317.275" y="983.249"/>
      <point x="491.341" y="1044"/>
      <point x="623" y="1044" type="curve" smooth="yes"/>
      <point x="946" y="1044"/>
      <point x="965" y="790"/>
      <point x="965" y="584" type="curve" smooth="yes"/>
      <point x="965" y="0" type="line" smooth="no"/>
      <point x="823" y="0" type="line" smooth="no"/>
      <point x="823" y="603" type="line" smooth="yes"/>
      <point x="823" y="806"/>
      <point x="782" y="930"/>
      <point x="603" y="930" type="curve" smooth="yes"/>
      <point x="340" y="930"/>
      <point x="269" y="739"/>
      <point x="269" y="499" type="curve" smooth="yes"/>
      <point x="269" y="0" type="line" smooth="no"/>
    </contour>
  </outline>
</glyph>
<glyph name="o" format="1">
  <advance width="1064"/>
  <unicode hex="006f"/>
  <outline>
    <contour>
      <point x="533" y="1044" type="curve" smooth="yes"/>
      <point x="784" y="1044"/>
      <point x="972" y="873"/>
      <point x="972" y="513" type="curve" smooth="yes"/>
      <point x="972" y="162"/>
      <point x="797" y="-24"/>
      <point x="532" y="-24" type="curve" smooth="yes"/>
      <point x="267" y="-24"/>
      <point x="92" y="161"/>
      <point x="92" y="510" type="curve" smooth="yes"/>
      <point x="92" y="872"/>
      <point x="279" y="1044"/>
    </contour>
    <contour>
      <point x="532" y="940" type="curve" smooth="yes"/>
      <point x="298" y="940"/>
      <point x="237" y="720"/>
      <point x="237" y="513" type="curve" smooth="yes"/>
      <point x="237" y="302"/>
      <point x="298" y="81"/>
      <point x="533" y="81" type="curve" smooth="yes"/>
      <point x="766" y="81"/>
      <point x="828" y="301"/>
      <point x="828" y="511" type="curve" smooth="yes"/>
      <point x="828" y="720"/>
      <point x="764" y="940"/>
    </contour>
  </outline>
</glyph>
<glyph name="p" format="1">
  <advance width="1061"/>
  <unicode hex="0070"/>
  <outline>
    <contour>
      <point x="825" y="521" type="curve" smooth="yes"/>
      <point x="825" y="243"/>
      <point x="724" y="81"/>
      <point x="559" y="81" type="curve" smooth="yes"/>
      <point x="327" y="81"/>
      <point x="270" y="294"/>
      <point x="270" y="519" type="curve" smooth="yes"/>
      <point x="270" y="737"/>
      <point x="306" y="940"/>
      <point x="558" y="940" type="curve" smooth="yes"/>
      <point x="726" y="940"/>
      <point x="825" y="767"/>
    </contour>
    <contour>
      <point x="253" y="1023" type="line" smooth="no"/>
      <point x="131" y="1023" type="line" smooth="no"/>
      <point x="131" y="-350" type="line" smooth="no"/>
      <point x="273" y="-350" type="line" smooth="no"/>
      <point x="273" y="21" type="line" smooth="yes"/>
      <point x="273" y="65"/>
      <point x="274" y="110"/>
      <point x="273" y="154" type="curve" smooth="no"/>
      <point x="332" y="40"/>
      <point x="441" y="-24"/>
      <point x="580" y="-24" type="curve" smooth="no"/>
      <point x="846" y="-21"/>
      <point x="969" y="217"/>
      <point x="969" y="520" type="curve" smooth="yes"/>
      <point x="969" y="812"/>
      <point x="848" y="1044"/>
      <point x="573" y="1044" type="curve" smooth="yes"/>
      <point x="424" y="1044"/>
      <point x="326" y="976"/>
      <point x="263" y="858" type="curve" smooth="no"/>
    </contour>
  </outline>
</glyph>
<glyph name="q" format="1">
  <advance width="1057"/>
  <unicode hex="0071"/>
  <outline>
    <contour>
      <point x="481" y="1044" type="curve" smooth="yes"/>
      <point x="617" y="1044"/>
      <point x="737" y="997"/>
      <point x="797" y="862" type="curve" smooth="no"/>
      <point x="812" y="1023" type="line" smooth="no"/>
      <point x="929" y="1023" type="line" smooth="no"/>
      <point x="929" y="-350" type="line" smooth="no"/>
      <point x="786" y="-350" type="line" smooth="no"/>
      <point x="786" y="12" type="line" smooth="no"/>
      <point x="786" y="155" type="line" smooth="no"/>
      <point x="729" y="39"/>
      <point x="620" y="-24"/>
      <point x="479" y="-24" type="curve" smooth="yes"/>
      <point x="219" y="-24"/>
      <point x="92" y="212"/>
      <point x="92" y="518" type="curve" smooth="yes"/>
      <point x="92" y="809"/>
      <point x="219" y="1044"/>
    </contour>
    <contour>
      <point x="502" y="940" type="curve" smooth="yes"/>
      <point x="334" y="940"/>
      <point x="237" y="763"/>
      <point x="237" y="522" type="curve" smooth="yes"/>
      <point x="237" y="244"/>
      <point x="336" y="81"/>
      <point x="498" y="81" type="curve" smooth="yes"/>
      <point x="739" y="81"/>
      <point x="788" y="294"/>
      <point x="788" y="501" type="curve" smooth="yes"/>
      <point x="788" y="736"/>
      <point x="743" y="940"/>
    </contour>
  </outline>
</glyph>
<glyph name="r" format="1">
  <advance width="584"/>
  <unicode hex="0072"/>
  <outline>
    <contour>
      <point x="260" y="1023" type="line" smooth="no"/>
      <point x="260" y="831" type="line" smooth="no"/>
      <point x="319" y="978"/>
      <point x="454" y="1024"/>
      <point x="566" y="1024" type="curve" smooth="no"/>
      <point x="566" y="895" type="line" smooth="no"/>
      <point x="337" y="895"/>
      <point x="264" y="717"/>
      <point x="264" y="532" type="curve" smooth="yes"/>
      <point x="264" y="0" type="line" smooth="no"/>
      <point x="122" y="0" type="line" smooth="no"/>
      <point x="122" y="1023" type="line" smooth="no"/>
    </contour>
  </outline>
</glyph>
<glyph name="s" format="1">
  <advance width="929"/>
  <unicode hex="0073"/>
  <outline>
    <contour>
      <point x="841" y="846" type="curve" smooth="no"/>
      <point x="841" y="846"/>
      <point x="744" y="791"/>
      <point x="744" y="790" type="curve" smooth="no"/>
      <point x="698" y="895"/>
      <point x="620" y="937"/>
      <point x="488" y="937" type="curve" smooth="yes"/>
      <point x="324" y="937"/>
      <point x="236" y="877"/>
      <point x="236" y="759" type="curve" smooth="yes"/>
      <point x="236" y="640"/>
      <point x="349" y="608"/>
      <point x="501" y="580" type="curve" smooth="yes"/>
      <point x="719" y="540"/>
      <point x="850" y="463"/>
      <point x="850" y="286" type="curve" smooth="yes"/>
      <point x="850" y="87"/>
      <point x="720" y="-24"/>
      <point x="445" y="-24" type="curve" smooth="yes"/>
      <point x="291" y="-24"/>
      <point x="119" y="35"/>
      <point x="67" y="225" type="curve" smooth="no"/>
      <point x="175" y="269" type="line" smooth="no"/>
      <point x="222" y="142"/>
      <point x="295" y="83"/>
      <point x="458" y="83" type="curve" smooth="yes"/>
      <point x="598" y="83"/>
      <point x="721" y="120"/>
      <point x="721" y="259" type="curve" smooth="yes"/>
      <point x="721" y="390"/>
      <point x="658" y="422"/>
      <point x="408" y="474" type="curve" smooth="yes"/>
      <point x="239" y="510"/>
      <point x="102" y="560"/>
      <point x="102" y="761" type="curve" smooth="yes"/>
      <point x="102" y="946"/>
      <point x="261" y="1044"/>
      <point x="480" y="1044" type="curve" smooth="yes"/>
      <point x="657" y="1044"/>
      <point x="768" y="993"/>
    </contour>
  </outline>
</glyph>
<glyph name="t" format="1">
  <advance width="644"/>
  <unicode hex="0074"/>
  <outline>
    <contour>
      <point x="594" y="125" type="curve" smooth="no"/>
      <point x="618" y="32" type="line" smooth="no"/>
      <point x="571" y="2"/>
      <point x="508" y="-16"/>
      <point x="442" y="-16" type="curve" smooth="yes"/>
      <point x="266" y="-16"/>
      <point x="191" y="84"/>
      <point x="191" y="325" type="curve" smooth="yes"/>
      <point x="191" y="924" type="line" smooth="no"/>
      <point x="38" y="924" type="line" smooth="no"/>
      <point x="38" y="1023" type="line" smooth="no"/>
      <point x="200" y="1023" type="line" smooth="no"/>
      <point x="200" y="1350" type="line" smooth="no"/>
      <point x="333" y="1387" type="line" smooth="no"/>
      <point x="333" y="1023" type="line" smooth="no"/>
      <point x="557" y="1023" type="line" smooth="no"/>
      <point x="557" y="924" type="line" smooth="no"/>
      <point x="333" y="924" type="line" smooth="no"/>
      <point x="333" y="261" type="line" smooth="yes"/>
      <point x="333" y="132"/>
      <point x="391" y="91"/>
      <point x="471" y="91" type="curve" smooth="yes"/>
      <point x="507" y="91"/>
      <point x="553" y="107"/>
    </contour>
  </outline>
</glyph>
<glyph name="u" format="1">
  <advance width="1118"/>
  <unicode hex="0075"/>
  <outline>
    <contour>
      <point x="813" y="436" type="curve" smooth="yes"/>
      <point x="813" y="1023" type="line" smooth="no"/>
      <point x="955" y="1023" type="line" smooth="no"/>
      <point x="955" y="0" type="line" smooth="no"/>
      <point x="817" y="0" type="line" smooth="no"/>
      <point x="817" y="192" type="line" smooth="no"/>
      <point x="760" y="39.2963"/>
      <point x="595" y="-25"/>
      <point x="458" y="-25" type="curve" smooth="yes"/>
      <point x="143" y="-25"/>
      <point x="121" y="234.563"/>
      <point x="121" y="436" type="curve" smooth="yes"/>
      <point x="121" y="1023" type="line" smooth="no"/>
      <point x="263" y="1023" type="line" smooth="no"/>
      <point x="263" y="406" type="line" smooth="yes"/>
      <point x="263" y="204.677"/>
      <point x="311.109" y="80"/>
      <point x="479" y="80" type="curve" smooth="yes"/>
      <point x="745.188" y="80"/>
      <point x="813" y="311.553"/>
    </contour>
  </outline>
</glyph>
<glyph name="v" format="1">
  <advance width="952"/>
  <unicode hex="0076"/>
  <outline>
    <contour>
      <point x="788" y="1023" type="line" smooth="no"/>
      <point x="926" y="1023" type="line" smooth="no"/>
      <point x="532" y="0" type="line" smooth="no"/>
      <point x="406" y="0" type="line" smooth="no"/>
      <point x="23" y="1023" type="line" smooth="no"/>
      <point x="175" y="1023" type="line" smooth="no"/>
      <point x="476" y="151" type="line" smooth="no"/>
    </contour>
  </outline>
</glyph>
<glyph name="w" format="1">
  <advance width="1487"/>
  <unicode hex="0077"/>
  <outline>
    <contour>
      <point x="351" y="0" type="line" smooth="no"/>
      <point x="21" y="1023" type="line" smooth="no"/>
      <point x="173" y="1023" type="line" smooth="no"/>
      <point x="422" y="177" type="line" smooth="no"/>
      <point x="515" y="459"/>
      <point x="607" y="741"/>
      <point x="700" y="1023" type="curve" smooth="no"/>
      <point x="794" y="1023" type="line" smooth="no"/>
      <point x="881" y="741"/>
      <point x="968" y="459"/>
      <point x="1056" y="178" type="curve" smooth="no"/>
      <point x="1323" y="1023" type="line" smooth="no"/>
      <point x="1463" y="1023" type="line" smooth="no"/>
      <point x="1115" y="0" type="line" smooth="no"/>
      <point x="988" y="0" type="line" smooth="no"/>
      <point x="742" y="800" type="line" smooth="no"/>
      <point x="478" y="0" type="line" smooth="no"/>
    </contour>
  </outline>
</glyph>
<glyph name="x" format="1">
  <advance width="966"/>
  <unicode hex="0078"/>
  <outline>
    <contour>
      <point x="405" y="514" type="line" smooth="no"/>
      <point x="34" y="1023" type="line" smooth="no"/>
      <point x="188" y="1023" type="line" smooth="no"/>
      <point x="482" y="606" type="line" smooth="no"/>
      <point x="776" y="1023" type="line" smooth="no"/>
      <point x="926" y="1023" type="line" smooth="no"/>
      <point x="558" y="518" type="line" smooth="no"/>
      <point x="938" y="0" type="line" smooth="no"/>
      <point x="784" y="0" type="line" smooth="no"/>
      <point x="481" y="420" type="line" smooth="no"/>
      <point x="181" y="0" type="line" smooth="no"/>
      <point x="31" y="0" type="line" smooth="no"/>
    </contour>
  </outline>
</glyph>
<glyph name="y" format="1">
  <advance width="985"/>
  <unicode hex="0079"/>
  <outline>
    <contour>
      <point x="426" y="64" type="line" smooth="no"/>
      <point x="34" y="1023" type="line" smooth="no"/>
      <point x="180" y="1023" type="line" smooth="yes"/>
      <point x="181" y="1023"/>
      <point x="397" y="463"/>
      <point x="498" y="211" type="curve" smooth="no"/>
      <point x="598" y="470"/>
      <point x="697" y="722"/>
      <point x="815" y="1023" type="curve" smooth="no"/>
      <point x="955" y="1023" type="line" smooth="no"/>
      <point x="833" y="715"/>
      <point x="707" y="405"/>
      <point x="584" y="97" type="curve" smooth="yes"/>
      <point x="477" y="-171"/>
      <point x="397" y="-320"/>
      <point x="169" y="-320" type="curve" smooth="yes"/>
      <point x="136" y="-320"/>
      <point x="101" y="-316"/>
      <point x="64" y="-306" type="curve" smooth="no"/>
      <point x="79" y="-193" type="line" smooth="no"/>
      <point x="112" y="-198"/>
      <point x="141" y="-200"/>
      <point x="167" y="-200" type="curve" smooth="yes"/>
      <point x="262" y="-200"/>
      <point x="351" y="-155"/>
      <point x="403" y="-3" type="curve" smooth="yes"/>
    </contour>
  </outline>
</glyph>
<glyph name="z" format="1">
  <advance width="878"/>
  <unicode hex="007a"/>
  <outline>
    <contour>
      <point x="86" y="919" type="line" smooth="no"/>
      <point x="86" y="1023" type="line" smooth="no"/>
      <point x="836" y="1023" type="line" smooth="no"/>
      <point x="836" y="928" type="line" smooth="no"/>
      <point x="227" y="103" type="line" smooth="no"/>
      <point x="834" y="103" type="line" smooth="no"/>
      <point x="834" y="0" type="line" smooth="no"/>
      <point x="66" y="0" type="line" smooth="no"/>
      <point x="66" y="94" type="line" smooth="no"/>
      <point x="667" y="919" type="line" smooth="no"/>
    </contour>
  </outline>
</glyph>
<glyph name="braceleft" format="1">
  <advance width="644"/>
  <unicode hex="007b"/>
  <outline>
    <contour>
      <point x="35" y="754" type="line" smooth="no"/>
      <point x="196.095" y="765.716"/>
      <point x="198.001" y="897.538"/>
      <point x="198.001" y="1023.83" type="curve" smooth="yes"/>
      <point x="198.001" y="1026.89"/>
      <point x="198" y="1029.95"/>
      <point x="198" y="1033" type="curve" smooth="yes"/>
      <point x="198" y="1332"/>
      <point x="198" y="1544"/>
      <point x="608" y="1544" type="curve" smooth="no"/>
      <point x="608" y="1454" type="line" smooth="no"/>
      <point x="349.985" y="1454"/>
      <point x="349" y="1376.2"/>
      <point x="349" y="1040.79" type="curve" smooth="yes"/>
      <point x="349" y="1033" type="line" smooth="yes"/>
      <point x="349" y="851"/>
      <point x="319" y="738"/>
      <point x="190" y="707" type="curve" smooth="no"/>
      <point x="319" y="676"/>
      <point x="349" y="563"/>
      <point x="349" y="381" type="curve" smooth="yes"/>
      <point x="349" y="373.214" type="line" smooth="yes"/>
      <point x="349" y="37.7985"/>
      <point x="349.985" y="-40"/>
      <point x="608" y="-40" type="curve" smooth="no"/>
      <point x="608" y="-130" type="line" smooth="no"/>
      <point x="198" y="-130"/>
      <point x="198" y="82"/>
      <point x="198" y="381" type="curve" smooth="yes"/>
      <point x="198" y="384.053"/>
      <point x="198.001" y="387.112"/>
      <point x="198.001" y="390.173" type="curve" smooth="yes"/>
      <point x="198.001" y="516.462"/>
      <point x="196.095" y="648.284"/>
      <point x="35" y="660" type="curve" smooth="no"/>
    </contour>
  </outline>
</glyph>
<glyph name="braceright" format="1">
  <advance width="644"/>
  <unicode hex="007d"/>
  <outline>
    <contour>
      <point x="609" y="753" type="line" smooth="no"/>
      <point x="444" y="765"/>
      <point x="446" y="903"/>
      <point x="446" y="1032" type="curve" smooth="yes"/>
      <point x="446" y="1331"/>
      <point x="446" y="1543"/>
      <point x="36" y="1543" type="curve" smooth="no"/>
      <point x="36" y="1453" type="line" smooth="no"/>
      <point x="296" y="1453"/>
      <point x="295" y="1374"/>
      <point x="295" y="1032" type="curve" smooth="yes"/>
      <point x="295" y="850"/>
      <point x="325" y="737"/>
      <point x="454" y="706" type="curve" smooth="no"/>
      <point x="325" y="675"/>
      <point x="295" y="562"/>
      <point x="295" y="380" type="curve" smooth="yes"/>
      <point x="295" y="38"/>
      <point x="296" y="-41"/>
      <point x="36" y="-41" type="curve" smooth="no"/>
      <point x="36" y="-131" type="line" smooth="no"/>
      <point x="446" y="-131"/>
      <point x="446" y="81"/>
      <point x="446" y="380" type="curve" smooth="yes"/>
      <point x="446" y="509"/>
      <point x="444" y="647"/>
      <point x="609" y="659" type="curve" smooth="no"/>
    </contour>
  </outline>
</glyph>
<glyph name="asciitilde" format="1">
  <advance width="962"/>
  <unicode hex="007e"/>
  <outline>
    <contour>
      <point x="757" y="700" type="curve" smooth="yes"/>
      <point x="864" y="700"/>
      <point x="932" y="754"/>
      <point x="941" y="946" type="curve" smooth="no"/>
      <point x="822" y="946" type="line" smooth="no"/>
      <point x="804" y="855"/>
      <point x="800" y="826"/>
      <point x="743" y="826" type="curve" smooth="yes"/>
      <point x="669" y="826"/>
      <point x="347" y="946"/>
      <point x="235" y="946" type="curve" smooth="yes"/>
      <point x="143" y="946"/>
      <point x="36" y="944"/>
      <point x="21" y="707" type="curve" smooth="no"/>
      <point x="139" y="707" type="line" smooth="no"/>
      <point x="160" y="818"/>
      <point x="185" y="825"/>
      <point x="217" y="825" type="curve" smooth="yes"/>
      <point x="314" y="825"/>
      <point x="605" y="700"/>
    </contour>
  </outline>
</glyph>
<glyph name="exclamdown" format="1">
  <advance width="426"/>
  <unicode hex="00a1"/>
  <outline>
    <contour>
      <point x="174" y="1160" type="line" smooth="no"/>
      <point x="250" y="1160" type="line" smooth="no"/>
      <point x="307" y="0" type="line" smooth="no"/>
      <point x="122" y="0" type="line" smooth="no"/>
    </contour>
    <contour>
      <point x="139" y="1268" type="line" smooth="no"/>
      <point x="139" y="1465" type="line" smooth="no"/>
      <point x="303" y="1465" type="line" smooth="no"/>
      <point x="303" y="1268" type="line" smooth="no"/>
    </contour>
  </outline>
</glyph>
<glyph name="cent" format="1">
  <advance width="993"/>
  <unicode hex="00a2"/>
  <outline>
    <contour>
      <point x="484" y="-208" type="line" smooth="no"/>
      <point x="577" y="-208" type="line" smooth="no"/>
      <point x="577" y="-22" type="line" smooth="no"/>
      <point x="721" y="-7"/>
      <point x="861" y="85"/>
      <point x="906" y="289" type="curve" smooth="no"/>
      <point x="805" y="323" type="line" smooth="no"/>
      <point x="764" y="184"/>
      <point x="688" y="100"/>
      <point x="577" y="84" type="curve" smooth="no"/>
      <point x="577" y="938" type="line" smooth="no"/>
      <point x="687" y="925"/>
      <point x="760" y="847"/>
      <point x="798" y="701" type="curve" smooth="no"/>
      <point x="909" y="733" type="line" smooth="no"/>
      <point x="858" y="954"/>
      <point x="718" y="1030"/>
      <point x="577" y="1042" type="curve" smooth="no"/>
      <point x="577" y="1253" type="line" smooth="no"/>
      <point x="484" y="1253" type="line" smooth="no"/>
      <point x="484" y="1042" type="line" smooth="no"/>
      <point x="223" y="1017"/>
      <point x="94" y="798"/>
      <point x="94" y="509" type="curve" smooth="yes"/>
      <point x="94" y="216"/>
      <point x="225" y="2"/>
      <point x="484" y="-22" type="curve" smooth="no"/>
    </contour>
    <contour>
      <point x="484" y="935" type="curve" smooth="no"/>
      <point x="484" y="85" type="line" smooth="no"/>
      <point x="313" y="113"/>
      <point x="237" y="282"/>
      <point x="237" y="512" type="curve" smooth="yes"/>
      <point x="237" y="742"/>
      <point x="313" y="906"/>
    </contour>
  </outline>
</glyph>
<glyph name="sterling" format="1">
  <advance width="1168"/>
  <unicode hex="00a3"/>
  <outline>
    <contour>
      <point x="677" y="42" type="curve" smooth="yes"/>
      <point x="807.432" y="42"/>
      <point x="878.668" y="20.5116"/>
      <point x="979" y="0" type="curve" smooth="no"/>
      <point x="1006" y="129" type="line" smooth="no"/>
      <point x="918" y="152"/>
      <point x="849" y="167"/>
      <point x="739" y="167" type="curve" smooth="yes"/>
      <point x="615" y="167"/>
      <point x="490" y="158.667"/>
      <point x="307" y="92" type="curve" smooth="no"/>
      <point x="347" y="170.575"/>
      <point x="395" y="258.216"/>
      <point x="395" y="502" type="curve" smooth="yes"/>
      <point x="395" y="556"/>
      <point x="387" y="623"/>
      <point x="381" y="695" type="curve" smooth="no"/>
      <point x="773" y="695" type="line" smooth="no"/>
      <point x="773" y="797" type="line" smooth="no"/>
      <point x="374" y="797" type="line" smooth="no"/>
      <point x="369" y="854"/>
      <point x="355" y="955"/>
      <point x="355" y="1007" type="curve" smooth="yes"/>
      <point x="355" y="1257.85"/>
      <point x="447" y="1374"/>
      <point x="651" y="1374" type="curve" smooth="yes"/>
      <point x="733" y="1374"/>
      <point x="848" y="1350.87"/>
      <point x="884" y="1134" type="curve" smooth="no"/>
      <point x="1003" y="1152" type="line" smooth="no"/>
      <point x="971" y="1365.26"/>
      <point x="876" y="1491"/>
      <point x="645" y="1491" type="curve" smooth="yes"/>
      <point x="359" y="1491"/>
      <point x="215" y="1321.33"/>
      <point x="215" y="988" type="curve" smooth="yes"/>
      <point x="215" y="942"/>
      <point x="229" y="847"/>
      <point x="233" y="797" type="curve" smooth="no"/>
      <point x="66" y="797" type="line" smooth="no"/>
      <point x="66" y="695" type="line" smooth="no"/>
      <point x="242" y="695" type="line" smooth="no"/>
      <point x="250" y="634"/>
      <point x="260" y="574"/>
      <point x="260" y="525" type="curve" smooth="yes"/>
      <point x="260" y="328"/>
      <point x="229" y="211"/>
      <point x="156" y="60" type="curve" smooth="no"/>
      <point x="219" y="-26" type="line" smooth="no"/>
      <point x="442.339" y="25"/>
      <point x="555.553" y="42"/>
    </contour>
  </outline>
</glyph>
<glyph name="currency" format="1">
  <advance width="1068"/>
  <unicode hex="00a4"/>
  <outline>
    <contour>
      <point x="769" y="658" type="curve" smooth="yes"/>
      <point x="769" y="518"/>
      <point x="681" y="385"/>
      <point x="536" y="385" type="curve" smooth="yes"/>
      <point x="385" y="385"/>
      <point x="303" y="516"/>
      <point x="303" y="655" type="curve" smooth="yes"/>
      <point x="303" y="794"/>
      <point x="386" y="925"/>
      <point x="535" y="925" type="curve" smooth="yes"/>
      <point x="684" y="925"/>
      <point x="769" y="796"/>
    </contour>
    <contour>
      <point x="934" y="246" type="line" smooth="no"/>
      <point x="990" y="309" type="line" smooth="no"/>
      <point x="831" y="449" type="line" smooth="no"/>
      <point x="866" y="510"/>
      <point x="883" y="581"/>
      <point x="883" y="653" type="curve" smooth="yes"/>
      <point x="883" y="740"/>
      <point x="857" y="828"/>
      <point x="805" y="896" type="curve" smooth="no"/>
      <point x="942" y="1052" type="line" smooth="no"/>
      <point x="878" y="1108" type="line" smooth="no"/>
      <point x="745" y="956" type="line" smooth="no"/>
      <point x="691" y="998"/>
      <point x="620" y="1023"/>
      <point x="534" y="1023" type="curve" smooth="yes"/>
      <point x="427" y="1023"/>
      <point x="345" y="985"/>
      <point x="287" y="926" type="curve" smooth="no"/>
      <point x="134" y="1061" type="line" smooth="no"/>
      <point x="78" y="997" type="line" smooth="no"/>
      <point x="236" y="859" type="line" smooth="no"/>
      <point x="200" y="799"/>
      <point x="183" y="727"/>
      <point x="183" y="656" type="curve" smooth="yes"/>
      <point x="183" y="568"/>
      <point x="210" y="479"/>
      <point x="264" y="410" type="curve" smooth="no"/>
      <point x="126" y="253" type="line" smooth="no"/>
      <point x="190" y="197" type="line" smooth="no"/>
      <point x="324" y="350" type="line" smooth="no"/>
      <point x="379" y="309"/>
      <point x="449" y="284"/>
      <point x="535" y="284" type="curve" smooth="yes"/>
      <point x="641" y="284"/>
      <point x="722" y="322"/>
      <point x="780" y="381" type="curve" smooth="no"/>
    </contour>
  </outline>
</glyph>
<glyph name="section" format="1">
  <advance width="1005"/>
  <unicode hex="00a7"/>
  <outline>
    <contour>
      <point x="301" y="739" type="curve" smooth="yes"/>
      <point x="301" y="790"/>
      <point x="316" y="842"/>
      <point x="391" y="939" type="curve" smooth="no"/>
      <point x="604" y="857"/>
      <point x="739" y="822"/>
      <point x="739" y="711" type="curve" smooth="yes"/>
      <point x="739" y="668"/>
      <point x="722" y="609"/>
      <point x="677" y="532" type="curve" smooth="no"/>
      <point x="677" y="532"/>
      <point x="301" y="626"/>
    </contour>
    <contour>
      <point x="535" y="-25" type="curve" smooth="yes"/>
      <point x="776" y="-25"/>
      <point x="898" y="76"/>
      <point x="898" y="261" type="curve" smooth="yes"/>
      <point x="898" y="363"/>
      <point x="858" y="429"/>
      <point x="783" y="479" type="curve" smooth="no"/>
      <point x="844" y="576"/>
      <point x="873" y="647"/>
      <point x="873" y="714" type="curve" smooth="yes"/>
      <point x="873" y="852"/>
      <point x="783" y="916"/>
      <point x="560" y="1002" type="curve" smooth="yes"/>
      <point x="391.927" y="1066.8"/>
      <point x="300" y="1090.27"/>
      <point x="300" y="1197" type="curve" smooth="no"/>
      <point x="302" y="1312.73"/>
      <point x="382" y="1374"/>
      <point x="535" y="1374" type="curve" smooth="yes"/>
      <point x="667" y="1374"/>
      <point x="731" y="1340.17"/>
      <point x="793" y="1229" type="curve" smooth="no"/>
      <point x="793" y="1230"/>
      <point x="884" y="1286"/>
      <point x="884" y="1286" type="curve" smooth="no"/>
      <point x="810" y="1437.7"/>
      <point x="704" y="1491"/>
      <point x="527" y="1491" type="curve" smooth="yes"/>
      <point x="308" y="1491"/>
      <point x="167" y="1391.27"/>
      <point x="167" y="1203" type="curve" smooth="yes"/>
      <point x="167" y="1085"/>
      <point x="213" y="1033"/>
      <point x="281" y="992" type="curve" smooth="no"/>
      <point x="200" y="891"/>
      <point x="174" y="823"/>
      <point x="174" y="755" type="curve" smooth="yes"/>
      <point x="174" y="617"/>
      <point x="264" y="550"/>
      <point x="455" y="481" type="curve" smooth="yes"/>
      <point x="718" y="386"/>
      <point x="766" y="376"/>
      <point x="770" y="251" type="curve" smooth="no"/>
      <point x="770" y="143.963"/>
      <point x="685.3" y="93"/>
      <point x="540" y="93" type="curve" smooth="yes"/>
      <point x="378" y="93"/>
      <point x="273" y="162.478"/>
      <point x="229" y="310" type="curve" smooth="no"/>
      <point x="127" y="273" type="line" smooth="no"/>
      <point x="165" y="49"/>
      <point x="370" y="-25"/>
    </contour>
  </outline>
</glyph>
<glyph name="copyright" format="1">
  <advance width="1702"/>
  <unicode hex="00a9"/>
  <outline>
    <contour>
      <point x="856" y="1247" type="curve" smooth="yes"/>
      <point x="992" y="1247"/>
      <point x="1091" y="1172"/>
      <point x="1129" y="1015" type="curve" smooth="no"/>
      <point x="1058" y="997" type="line" smooth="no"/>
      <point x="1034" y="1102"/>
      <point x="975" y="1177"/>
      <point x="853" y="1177" type="curve" smooth="yes"/>
      <point x="670" y="1177"/>
      <point x="598" y="1035"/>
      <point x="598" y="799" type="curve" smooth="yes"/>
      <point x="598" y="544"/>
      <point x="662" y="415"/>
      <point x="854" y="415" type="curve" smooth="yes"/>
      <point x="973" y="415"/>
      <point x="1033" y="481"/>
      <point x="1066" y="584" type="curve" smooth="no"/>
      <point x="1132" y="561" type="line" smooth="no"/>
      <point x="1088" y="413"/>
      <point x="986" y="344"/>
      <point x="850" y="344" type="curve" smooth="yes"/>
      <point x="636" y="344"/>
      <point x="517" y="475"/>
      <point x="517" y="799" type="curve" smooth="yes"/>
      <point x="517" y="1115"/>
      <point x="653" y="1247"/>
    </contour>
    <contour>
      <point x="1579" y="774" type="curve" smooth="yes"/>
      <point x="1579" y="375"/>
      <point x="1251" y="47"/>
      <point x="850" y="47" type="curve" smooth="yes"/>
      <point x="451" y="47"/>
      <point x="123" y="375"/>
      <point x="123" y="774" type="curve" smooth="yes"/>
      <point x="123" y="1175"/>
      <point x="451" y="1503"/>
      <point x="850" y="1503" type="curve" smooth="yes"/>
      <point x="1251" y="1503"/>
      <point x="1579" y="1175"/>
    </contour>
    <contour>
      <point x="849" y="100" type="curve" smooth="yes"/>
      <point x="1220" y="100"/>
      <point x="1523" y="403"/>
      <point x="1523" y="773" type="curve" smooth="yes"/>
      <point x="1523" y="1144"/>
      <point x="1221" y="1452"/>
      <point x="850" y="1452" type="curve" smooth="yes"/>
      <point x="480" y="1452"/>
      <point x="176" y="1144"/>
      <point x="176" y="773" type="curve" smooth="yes"/>
      <point x="176" y="403"/>
      <point x="479" y="100"/>
    </contour>
  </outline>
</glyph>
<glyph name="ordfeminine" format="1">
  <advance width="946"/>
  <unicode hex="00aa"/>
  <outline>
    <contour>
      <point x="671" y="192" type="line" smooth="no"/>
      <point x="596" y="125"/>
      <point x="496" y="68"/>
      <point x="396" y="68" type="curve" smooth="yes"/>
      <point x="306" y="68"/>
      <point x="269" y="131"/>
      <point x="269" y="229" type="curve" smooth="yes"/>
      <point x="269" y="333"/>
      <point x="382" y="372"/>
      <point x="595" y="406" type="curve" smooth="no"/>
      <point x="671" y="419" type="line" smooth="no"/>
    </contour>
    <contour>
      <point x="676" y="97" type="curve" smooth="no"/>
      <point x="690" y="0" type="line" smooth="no"/>
      <point x="794" y="0" type="line" smooth="no"/>
      <point x="794" y="544" type="line" smooth="yes"/>
      <point x="794" y="762"/>
      <point x="686" y="871"/>
      <point x="492" y="871" type="curve" smooth="yes"/>
      <point x="395" y="871"/>
      <point x="257" y="819"/>
      <point x="182" y="737" type="curve" smooth="no"/>
      <point x="182" y="737"/>
      <point x="260" y="667"/>
      <point x="260" y="666" type="curve" smooth="no"/>
      <point x="317" y="722"/>
      <point x="407" y="770"/>
      <point x="494" y="770" type="curve" smooth="yes"/>
      <point x="589" y="770"/>
      <point x="671" y="718"/>
      <point x="671" y="573" type="curve" smooth="yes"/>
      <point x="671" y="507" type="line" smooth="no"/>
      <point x="594" y="495" type="line" smooth="no"/>
      <point x="353" y="455"/>
      <point x="152" y="415"/>
      <point x="152" y="201" type="curve" smooth="yes"/>
      <point x="152" y="53"/>
      <point x="267" y="-20"/>
      <point x="393" y="-20" type="curve" smooth="yes"/>
      <point x="500" y="-20"/>
      <point x="590" y="21"/>
    </contour>
  </outline>
</glyph>
<glyph name="guillemotleft" format="1">
  <advance width="946"/>
  <unicode hex="00ab"/>
  <outline>
    <contour>
      <point x="894" y="251" type="line" smooth="no"/>
      <point x="449" y="552" type="line" smooth="no"/>
      <point x="449" y="749" type="line" smooth="no"/>
      <point x="894" y="1050" type="line" smooth="no"/>
      <point x="894" y="909" type="line" smooth="no"/>
      <point x="547" y="650" type="line" smooth="no"/>
      <point x="894" y="393" type="line" smooth="no"/>
    </contour>
    <contour>
      <point x="51" y="552" type="line" smooth="no"/>
      <point x="51" y="749" type="line" smooth="no"/>
      <point x="496" y="1050" type="line" smooth="no"/>
      <point x="496" y="909" type="line" smooth="no"/>
      <point x="149" y="650" type="line" smooth="no"/>
      <point x="496" y="393" type="line" smooth="no"/>
      <point x="496" y="251" type="line" smooth="no"/>
    </contour>
  </outline>
</glyph>
<glyph name="logicalnot" format="1">
  <advance width="1024"/>
  <unicode hex="00ac"/>
  <outline>
    <contour>
      <point x="803" y="335" type="line" smooth="no"/>
      <point x="889" y="335" type="line" smooth="no"/>
      <point x="889" y="756" type="line" smooth="no"/>
      <point x="135" y="756" type="line" smooth="no"/>
      <point x="135" y="670" type="line" smooth="no"/>
      <point x="803" y="670" type="line" smooth="no"/>
    </contour>
  </outline>
</glyph>
<glyph name="registered" format="1">
  <advance width="1702"/>
  <unicode hex="00ae"/>
  <outline>
    <contour>
      <point x="1579" y="774" type="curve" smooth="yes"/>
      <point x="1579" y="375"/>
      <point x="1251" y="47"/>
      <point x="850" y="47" type="curve" smooth="yes"/>
      <point x="451" y="47"/>
      <point x="123" y="375"/>
      <point x="123" y="774" type="curve" smooth="yes"/>
      <point x="123" y="1175"/>
      <point x="451" y="1503"/>
      <point x="850" y="1503" type="curve" smooth="yes"/>
      <point x="1251" y="1503"/>
      <point x="1579" y="1175"/>
    </contour>
    <contour>
      <point x="664" y="1184" type="line" smooth="no"/>
      <point x="664" y="846" type="line" smooth="no"/>
      <point x="849" y="846" type="line" smooth="yes"/>
      <point x="967" y="846"/>
      <point x="1092" y="864"/>
      <point x="1092" y="1015" type="curve" smooth="yes"/>
      <point x="1092" y="1169"/>
      <point x="960" y="1184"/>
      <point x="848" y="1184" type="curve" smooth="yes"/>
    </contour>
    <contour>
      <point x="857" y="1248" type="line" smooth="yes"/>
      <point x="1071" y="1248"/>
      <point x="1179" y="1173"/>
      <point x="1179" y="1017" type="curve" smooth="yes"/>
      <point x="1179" y="900"/>
      <point x="1115" y="829"/>
      <point x="1000" y="793" type="curve" smooth="no"/>
      <point x="1023" y="720"/>
      <point x="1186" y="379"/>
      <point x="1186" y="379" type="curve" smooth="no"/>
      <point x="1099" y="379" type="line" smooth="no"/>
      <point x="916" y="779" type="line" smooth="no"/>
      <point x="661" y="779" type="line" smooth="no"/>
      <point x="661" y="381" type="line" smooth="no"/>
      <point x="578" y="381" type="line" smooth="no"/>
      <point x="578" y="1248" type="line" smooth="no"/>
    </contour>
    <contour>
      <point x="849" y="100" type="curve" smooth="yes"/>
      <point x="1220" y="100"/>
      <point x="1523" y="403"/>
      <point x="1523" y="773" type="curve" smooth="yes"/>
      <point x="1523" y="1144"/>
      <point x="1220" y="1447"/>
      <point x="849" y="1447" type="curve" smooth="yes"/>
      <point x="479" y="1447"/>
      <point x="176" y="1144"/>
      <point x="176" y="773" type="curve" smooth="yes"/>
      <point x="176" y="403"/>
      <point x="479" y="100"/>
    </contour>
  </outline>
</glyph>
<glyph name="degree" format="1">
  <advance width="483"/>
  <unicode hex="00b0"/>
  <outline>
    <contour>
      <point x="483" y="1269" type="curve" smooth="yes"/>
      <point x="483" y="1393"/>
      <point x="392" y="1504"/>
      <point x="240" y="1504" type="curve" smooth="yes"/>
      <point x="93" y="1504"/>
      <point x="7.10543e-15" y="1394"/>
      <point x="0" y="1267" type="curve" smooth="yes"/>
      <point x="0" y="1143"/>
      <point x="92" y="1032"/>
      <point x="240" y="1032" type="curve" smooth="yes"/>
      <point x="391" y="1032"/>
      <point x="483" y="1143"/>
    </contour>
    <contour>
      <point x="379" y="1268" type="curve" smooth="yes"/>
      <point x="379" y="1194"/>
      <point x="332" y="1117"/>
      <point x="240" y="1117" type="curve" smooth="yes"/>
      <point x="146" y="1117"/>
      <point x="98" y="1194"/>
      <point x="98" y="1268" type="curve" smooth="yes"/>
      <point x="98" y="1341"/>
      <point x="147" y="1418"/>
      <point x="240" y="1418" type="curve" smooth="yes"/>
      <point x="328" y="1418"/>
      <point x="379" y="1341"/>
    </contour>
  </outline>
</glyph>
<glyph name="uni00B3" format="1">
  <advance width="772"/>
  <unicode hex="00b3"/>
  <outline>
    <contour>
      <point x="363" y="1481" type="curve" smooth="yes"/>
      <point x="281" y="1481"/>
      <point x="180" y="1440"/>
      <point x="150" y="1358" type="curve" smooth="no"/>
      <point x="223" y="1307" type="line" smooth="no"/>
      <point x="251" y="1368"/>
      <point x="310" y="1396"/>
      <point x="364" y="1396" type="curve" smooth="yes"/>
      <point x="438" y="1396"/>
      <point x="471" y="1356"/>
      <point x="471" y="1298" type="curve" smooth="yes"/>
      <point x="471" y="1233"/>
      <point x="440" y="1184"/>
      <point x="318" y="1182" type="curve" smooth="no"/>
      <point x="318" y="1095" type="line" smooth="no"/>
      <point x="454" y="1095"/>
      <point x="506" y="1040"/>
      <point x="506" y="953" type="curve" smooth="yes"/>
      <point x="506" y="895"/>
      <point x="456" y="834"/>
      <point x="376" y="834" type="curve" smooth="yes"/>
      <point x="300" y="834"/>
      <point x="234" y="866"/>
      <point x="208" y="950" type="curve" smooth="no"/>
      <point x="130" y="910" type="line" smooth="no"/>
      <point x="159" y="791"/>
      <point x="275" y="746"/>
      <point x="369" y="745" type="curve" smooth="no"/>
      <point x="534" y="745"/>
      <point x="621" y="851"/>
      <point x="615" y="960" type="curve" smooth="yes"/>
      <point x="610" y="1043"/>
      <point x="572" y="1111"/>
      <point x="459" y="1144" type="curve" smooth="no"/>
      <point x="540" y="1173"/>
      <point x="581" y="1242"/>
      <point x="581" y="1308" type="curve" smooth="yes"/>
      <point x="581" y="1396"/>
      <point x="505" y="1481"/>
    </contour>
  </outline>
</glyph>
<glyph name="acute" format="1">
  <advance width="494"/>
  <unicode hex="00b4"/>
  <outline>
    <contour>
      <point x="254" y="1492" type="line" smooth="no"/>
      <point x="449" y="1492" type="line" smooth="no"/>
      <point x="141" y="1172" type="line" smooth="no"/>
      <point x="49" y="1172" type="line" smooth="no"/>
    </contour>
  </outline>
</glyph>
<glyph name="uni00B5" format="1">
  <advance width="1122"/>
  <unicode hex="00b5"/>
  <outline>
    <contour>
      <point x="261" y="-350" type="line" smooth="no"/>
      <point x="261" y="57" type="line" smooth="no"/>
      <point x="301" y="12"/>
      <point x="381" y="-24"/>
      <point x="467" y="-24" type="curve" smooth="yes"/>
      <point x="604" y="-24"/>
      <point x="741" y="21"/>
      <point x="829" y="159" type="curve" smooth="no"/>
      <point x="833" y="0" type="line" smooth="no"/>
      <point x="970" y="0" type="line" smooth="no"/>
      <point x="970" y="1023" type="line" smooth="no"/>
      <point x="828" y="1023" type="line" smooth="no"/>
      <point x="828" y="436" type="line" smooth="yes"/>
      <point x="828" y="331"/>
      <point x="755" y="87"/>
      <point x="492" y="87" type="curve" smooth="yes"/>
      <point x="321" y="87"/>
      <point x="268" y="209"/>
      <point x="268" y="406" type="curve" smooth="yes"/>
      <point x="268" y="1023" type="line" smooth="no"/>
      <point x="121" y="1023" type="line" smooth="no"/>
      <point x="121" y="481" type="line" smooth="no"/>
      <point x="119" y="481" type="line" smooth="no"/>
      <point x="119" y="-350" type="line" smooth="no"/>
    </contour>
  </outline>
</glyph>
<glyph name="cedilla" format="1">
  <advance width="435"/>
  <unicode hex="00b8"/>
  <outline>
    <contour>
      <point x="150" y="-174" type="line" smooth="no"/>
      <point x="150" y="-10" type="line" smooth="no"/>
      <point x="350" y="-10" type="line" smooth="no"/>
      <point x="350" y="-189" type="line" smooth="yes"/>
      <point x="350" y="-281"/>
      <point x="313" y="-390"/>
      <point x="214" y="-390" type="curve" smooth="yes"/>
      <point x="200" y="-390"/>
      <point x="186" y="-387"/>
      <point x="172" y="-381" type="curve" smooth="no"/>
      <point x="172" y="-316" type="line" smooth="no"/>
      <point x="187" y="-320"/>
      <point x="199" y="-324"/>
      <point x="209" y="-324" type="curve" smooth="yes"/>
      <point x="238" y="-324"/>
      <point x="249" y="-294"/>
      <point x="249" y="-174" type="curve" smooth="no"/>
    </contour>
  </outline>
</glyph>
<glyph name="ordmasculine" format="1">
  <advance width="1000"/>
  <unicode hex="00ba"/>
  <outline>
    <contour>
      <point x="123" y="425" type="curve" smooth="yes"/>
      <point x="123" y="134"/>
      <point x="279" y="-20"/>
      <point x="500" y="-20" type="curve" smooth="yes"/>
      <point x="721" y="-20"/>
      <point x="877" y="135"/>
      <point x="877" y="428" type="curve" smooth="yes"/>
      <point x="877" y="728"/>
      <point x="710" y="871"/>
      <point x="501" y="871" type="curve" smooth="yes"/>
      <point x="289" y="871"/>
      <point x="123" y="727"/>
    </contour>
    <contour>
      <point x="501" y="79" type="curve" smooth="yes"/>
      <point x="325" y="79"/>
      <point x="254" y="252"/>
      <point x="254" y="428" type="curve" smooth="yes"/>
      <point x="254" y="601"/>
      <point x="325" y="773"/>
      <point x="500" y="773" type="curve" smooth="yes"/>
      <point x="674" y="773"/>
      <point x="747" y="601"/>
      <point x="747" y="426" type="curve" smooth="yes"/>
      <point x="747" y="251"/>
      <point x="674" y="79"/>
    </contour>
  </outline>
</glyph>
<glyph name="guillemotright" format="1">
  <advance width="946"/>
  <unicode hex="00bb"/>
  <outline>
    <contour>
      <point x="53" y="1049" type="line" smooth="no"/>
      <point x="498" y="748" type="line" smooth="no"/>
      <point x="498" y="551" type="line" smooth="no"/>
      <point x="53" y="250" type="line" smooth="no"/>
      <point x="53" y="391" type="line" smooth="no"/>
      <point x="400" y="650" type="line" smooth="no"/>
      <point x="53" y="907" type="line" smooth="no"/>
    </contour>
    <contour>
      <point x="896" y="748" type="line" smooth="no"/>
      <point x="896" y="551" type="line" smooth="no"/>
      <point x="451" y="250" type="line" smooth="no"/>
      <point x="451" y="391" type="line" smooth="no"/>
      <point x="798" y="650" type="line" smooth="no"/>
      <point x="451" y="907" type="line" smooth="no"/>
      <point x="451" y="1049" type="line" smooth="no"/>
    </contour>
  </outline>
</glyph>
<glyph name="onequarter" format="1">
  <advance width="1403"/>
  <unicode hex="00bc"/>
  <outline>
    <contour>
      <point x="68" y="52" type="line" smooth="no"/>
      <point x="146" y="-14" type="line" smooth="no"/>
      <point x="1381" y="1415" type="line" smooth="no"/>
      <point x="1304" y="1481" type="line" smooth="no"/>
    </contour>
    <contour>
      <point x="302" y="1365" type="line" smooth="no"/>
      <point x="302" y="769" type="line" smooth="no"/>
      <point x="415" y="769" type="line" smooth="no"/>
      <point x="415" y="1464" type="line" smooth="no"/>
      <point x="312" y="1464" type="line" smooth="no"/>
      <point x="164" y="1397" type="line" smooth="no"/>
      <point x="185" y="1307" type="line" smooth="no"/>
    </contour>
    <contour>
      <point x="707" y="152" type="line" smooth="no"/>
      <point x="1058" y="152" type="line" smooth="no"/>
      <point x="1058" y="0" type="line" smooth="no"/>
      <point x="1173" y="0" type="line" smooth="no"/>
      <point x="1173" y="152" type="line" smooth="no"/>
      <point x="1273" y="152" type="line" smooth="no"/>
      <point x="1273" y="234" type="line" smooth="no"/>
      <point x="1173" y="234" type="line" smooth="no"/>
      <point x="1173" y="693" type="line" smooth="no"/>
      <point x="1027" y="693" type="line" smooth="no"/>
      <point x="707" y="220" type="line" smooth="no"/>
    </contour>
    <contour>
      <point x="1058" y="234" type="line" smooth="no"/>
      <point x="821" y="234" type="line" smooth="no"/>
      <point x="1058" y="585" type="line" smooth="no"/>
    </contour>
  </outline>
</glyph>
<glyph name="onehalf" format="1">
  <advance width="1361"/>
  <unicode hex="00bd"/>
  <outline>
    <contour>
      <point x="86" y="-14" type="line" smooth="no"/>
      <point x="1321" y="1415" type="line" smooth="no"/>
      <point x="1244" y="1481" type="line" smooth="no"/>
      <point x="8" y="52" type="line" smooth="no"/>
    </contour>
    <contour>
      <point x="302" y="1365" type="line" smooth="no"/>
      <point x="302" y="769" type="line" smooth="no"/>
      <point x="415" y="769" type="line" smooth="no"/>
      <point x="415" y="1464" type="line" smooth="no"/>
      <point x="312" y="1464" type="line" smooth="no"/>
      <point x="164" y="1397" type="line" smooth="no"/>
      <point x="185" y="1307" type="line" smooth="no"/>
    </contour>
    <contour>
      <point x="1231" y="0" type="line" smooth="no"/>
      <point x="1231" y="80" type="line" smooth="no"/>
      <point x="901" y="80" type="line" smooth="no"/>
      <point x="992" y="235"/>
      <point x="1229" y="279"/>
      <point x="1229" y="497" type="curve" smooth="yes"/>
      <point x="1229" y="640"/>
      <point x="1107" y="712"/>
      <point x="990" y="712" type="curve" smooth="yes"/>
      <point x="884" y="712"/>
      <point x="778" y="658"/>
      <point x="735" y="537" type="curve" smooth="no"/>
      <point x="750" y="531"/>
      <point x="825" y="493"/>
      <point x="825" y="492" type="curve" smooth="no"/>
      <point x="843" y="574"/>
      <point x="918" y="617"/>
      <point x="989" y="617" type="curve" smooth="yes"/>
      <point x="1057" y="617"/>
      <point x="1121" y="576"/>
      <point x="1121" y="490" type="curve" smooth="yes"/>
      <point x="1121" y="487" type="line" smooth="yes"/>
      <point x="1121" y="336"/>
      <point x="763" y="225"/>
      <point x="756" y="0" type="curve" smooth="no"/>
    </contour>
  </outline>
</glyph>
<glyph name="questiondown" format="1">
  <advance width="1099"/>
  <unicode hex="00bf"/>
  <outline>
    <contour>
      <point x="273" y="378" type="curve" smooth="yes"/>
      <point x="273" y="626"/>
      <point x="476" y="692"/>
      <point x="702" y="1109" type="curve" smooth="no"/>
      <point x="553" y="1109" type="line" smooth="no"/>
      <point x="345" y="752"/>
      <point x="127" y="652"/>
      <point x="127" y="373" type="curve" smooth="yes"/>
      <point x="127" y="181"/>
      <point x="252" y="-24"/>
      <point x="571" y="-24" type="curve" smooth="yes"/>
      <point x="733" y="-24"/>
      <point x="914" y="28"/>
      <point x="1033" y="217" type="curve" smooth="no"/>
      <point x="934" y="290" type="line" smooth="no"/>
      <point x="904" y="243"/>
      <point x="799" y="87"/>
      <point x="580" y="87" type="curve" smooth="yes"/>
      <point x="345" y="87"/>
      <point x="273" y="237"/>
    </contour>
    <contour>
      <point x="718" y="1467" type="line" smooth="no"/>
      <point x="554" y="1467" type="line" smooth="no"/>
      <point x="554" y="1252" type="line" smooth="no"/>
      <point x="718" y="1252" type="line" smooth="no"/>
    </contour>
  </outline>
</glyph>
<glyph name="AE" format="1">
  <advance width="2030"/>
  <unicode hex="00c6"/>
  <outline>
    <contour>
      <point x="432" y="508" type="curve" smooth="no"/>
      <point x="974" y="508" type="line" smooth="no"/>
      <point x="974" y="1406" type="line" smooth="no"/>
      <point x="975" y="1405"/>
      <point x="879" y="1233"/>
      <point x="832" y="1167" type="curve" smooth="no"/>
      <point x="699" y="948"/>
      <point x="565" y="728"/>
    </contour>
    <contour>
      <point x="-37" y="0" type="line" smooth="no"/>
      <point x="870" y="1464" type="line" smooth="no"/>
      <point x="2005" y="1464" type="line" smooth="no"/>
      <point x="2005" y="1352" type="line" smooth="no"/>
      <point x="1118" y="1352" type="line" smooth="no"/>
      <point x="1118" y="838" type="line" smooth="no"/>
      <point x="1843" y="838" type="line" smooth="no"/>
      <point x="1843" y="800"/>
      <point x="1842" y="761"/>
      <point x="1842" y="723" type="curve" smooth="no"/>
      <point x="1118" y="723" type="line" smooth="no"/>
      <point x="1118" y="113" type="line" smooth="no"/>
      <point x="2015" y="113" type="line" smooth="no"/>
      <point x="2015" y="0" type="line" smooth="no"/>
      <point x="971" y="0" type="line" smooth="no"/>
      <point x="971" y="399" type="line" smooth="no"/>
      <point x="371" y="399" type="line" smooth="no"/>
      <point x="124" y="0" type="line" smooth="no"/>
    </contour>
  </outline>
</glyph>
<glyph name="Oslash" format="1">
  <advance width="1463"/>
  <unicode hex="00d8"/>
  <outline>
    <contour>
      <point x="722" y="1374" type="curve" smooth="yes"/>
      <point x="819" y="1374"/>
      <point x="898" y="1355"/>
      <point x="961" y="1321" type="curve" smooth="no"/>
      <point x="411" y="200" type="line" smooth="no"/>
      <point x="308" y="303"/>
      <point x="267" y="482"/>
      <point x="267" y="741" type="curve" smooth="yes"/>
      <point x="267" y="1130"/>
      <point x="370" y="1374"/>
    </contour>
    <contour>
      <point x="723" y="93" type="curve" smooth="yes"/>
      <point x="629" y="93"/>
      <point x="552" y="109"/>
      <point x="489" y="142" type="curve" smooth="no"/>
      <point x="1038" y="1262" type="line" smooth="no"/>
      <point x="1143" y="1154"/>
      <point x="1180" y="973"/>
      <point x="1180" y="740" type="curve" smooth="yes"/>
      <point x="1180" y="298"/>
      <point x="1062" y="93"/>
    </contour>
    <contour>
      <point x="1335" y="741" type="curve" smooth="yes"/>
      <point x="1335" y="1068"/>
      <point x="1250" y="1274"/>
      <point x="1098" y="1386" type="curve" smooth="no"/>
      <point x="1210" y="1614" type="line" smooth="no"/>
      <point x="1126" y="1658" type="line" smooth="no"/>
      <point x="1016" y="1434" type="line" smooth="no"/>
      <point x="933" y="1473"/>
      <point x="834" y="1491"/>
      <point x="723" y="1491" type="curve" smooth="yes"/>
      <point x="344" y="1491"/>
      <point x="114" y="1282"/>
      <point x="114" y="740" type="curve" smooth="yes"/>
      <point x="114" y="401"/>
      <point x="198" y="190"/>
      <point x="352" y="78" type="curve" smooth="no"/>
      <point x="235" y="-160" type="line" smooth="no"/>
      <point x="320" y="-204" type="line" smooth="no"/>
      <point x="434" y="30" type="line" smooth="no"/>
      <point x="516" y="-8"/>
      <point x="613" y="-25"/>
      <point x="722" y="-25" type="curve" smooth="yes"/>
      <point x="1113" y="-25"/>
      <point x="1335" y="193"/>
    </contour>
  </outline>
</glyph>
<glyph name="Thorn" format="1">
  <advance width="1261"/>
  <unicode hex="00de"/>
  <outline>
    <contour>
      <point x="140" y="0" type="line" smooth="no"/>
      <point x="140" y="1464" type="line" smooth="no"/>
      <point x="296" y="1464" type="line" smooth="no"/>
      <point x="296" y="1194" type="line" smooth="no"/>
      <point x="561" y="1194" type="line" smooth="yes"/>
      <point x="1030" y="1194"/>
      <point x="1203" y="1062"/>
      <point x="1203" y="773" type="curve" smooth="yes"/>
      <point x="1203" y="442"/>
      <point x="1007" y="335"/>
      <point x="502" y="335" type="curve" smooth="yes"/>
      <point x="290" y="335" type="line" smooth="no"/>
      <point x="290" y="0" type="line" smooth="no"/>
    </contour>
    <contour>
      <point x="296" y="1080" type="line" smooth="no"/>
      <point x="296" y="449" type="line" smooth="no"/>
      <point x="558" y="449" type="line" smooth="no"/>
      <point x="914" y="450"/>
      <point x="1055" y="526"/>
      <point x="1055" y="765" type="curve" smooth="yes"/>
      <point x="1055" y="1005"/>
      <point x="914" y="1080"/>
      <point x="538" y="1080" type="curve" smooth="yes"/>
    </contour>
  </outline>
</glyph>
<glyph name="germandbls" format="1">
  <advance width="1199"/>
  <unicode hex="00df"/>
  <outline>
    <contour>
      <point x="130" y="0" type="line" smooth="no"/>
      <point x="130" y="1151" type="line" smooth="yes"/>
      <point x="130" y="1373"/>
      <point x="350" y="1492"/>
      <point x="568" y="1492" type="curve" smooth="yes"/>
      <point x="829.327" y="1492"/>
      <point x="940" y="1360.1"/>
      <point x="940" y="1203" type="curve" smooth="yes"/>
      <point x="940" y="949"/>
      <point x="585" y="890"/>
      <point x="585" y="828" type="curve" smooth="yes"/>
      <point x="585" y="823" type="line" smooth="yes"/>
      <point x="585" y="685"/>
      <point x="1121" y="654"/>
      <point x="1121" y="336" type="curve" smooth="yes"/>
      <point x="1121" y="110.778"/>
      <point x="1042.98" y="0"/>
      <point x="481" y="0" type="curve" smooth="yes"/>
      <point x="441" y="0" type="line" smooth="no"/>
      <point x="441" y="117" type="line" smooth="no"/>
      <point x="894.769" y="117"/>
      <point x="975" y="196.389"/>
      <point x="975" y="332" type="curve" smooth="yes"/>
      <point x="975" y="572"/>
      <point x="441" y="589"/>
      <point x="441" y="816" type="curve" smooth="yes"/>
      <point x="441" y="1001"/>
      <point x="804" y="996"/>
      <point x="804" y="1209" type="curve" smooth="yes"/>
      <point x="804" y="1322"/>
      <point x="721" y="1388"/>
      <point x="565" y="1388" type="curve" smooth="yes"/>
      <point x="420" y="1388"/>
      <point x="276" y="1303"/>
      <point x="276" y="1140" type="curve" smooth="yes"/>
      <point x="276" y="0" type="line" smooth="no"/>
    </contour>
  </outline>
</glyph>
<glyph name="ae" format="1">
  <advance width="1667"/>
  <unicode hex="00e6"/>
  <outline>
    <contour>
      <point x="133" y="927" type="line" smooth="no"/>
      <point x="247" y="1006"/>
      <point x="366" y="1044"/>
      <point x="518" y="1044" type="curve" smooth="yes"/>
      <point x="682" y="1044"/>
      <point x="814" y="979"/>
      <point x="842" y="832" type="curve" smooth="no"/>
      <point x="903" y="966"/>
      <point x="1042" y="1044"/>
      <point x="1191" y="1044" type="curve" smooth="yes"/>
      <point x="1476" y="1044"/>
      <point x="1587" y="844"/>
      <point x="1587" y="572" type="curve" smooth="yes"/>
      <point x="1587" y="563"/>
      <point x="1586" y="525"/>
      <point x="1584" y="508" type="curve" smooth="no"/>
      <point x="900" y="494" type="line" smooth="no"/>
      <point x="900" y="272"/>
      <point x="963" y="81"/>
      <point x="1191" y="81" type="curve" smooth="yes"/>
      <point x="1367" y="81"/>
      <point x="1439" y="219"/>
      <point x="1455" y="273" type="curve" smooth="no"/>
      <point x="1570" y="234" type="line" smooth="no"/>
      <point x="1515" y="83"/>
      <point x="1369" y="-22"/>
      <point x="1195" y="-24" type="curve" smooth="no"/>
      <point x="1037" y="-24"/>
      <point x="895" y="49"/>
      <point x="845" y="195" type="curve" smooth="no"/>
      <point x="747" y="18"/>
      <point x="593" y="-25"/>
      <point x="429" y="-25" type="curve" smooth="yes"/>
      <point x="254" y="-25"/>
      <point x="84" y="58"/>
      <point x="84" y="251" type="curve" smooth="yes"/>
      <point x="84" y="507"/>
      <point x="308" y="575"/>
      <point x="613" y="581" type="curve" smooth="yes"/>
      <point x="614" y="581"/>
      <point x="753" y="585"/>
      <point x="752" y="586" type="curve" smooth="no"/>
      <point x="752" y="820"/>
      <point x="725" y="940"/>
      <point x="523" y="940" type="curve" smooth="yes"/>
      <point x="362" y="940"/>
      <point x="290" y="894"/>
      <point x="203" y="838" type="curve" smooth="no"/>
    </contour>
    <contour>
      <point x="771" y="318" type="curve" smooth="yes"/>
      <point x="771" y="360"/>
      <point x="761" y="462"/>
      <point x="761" y="487" type="curve" smooth="no"/>
      <point x="620" y="482" type="line" smooth="no"/>
      <point x="401" y="471"/>
      <point x="226" y="440"/>
      <point x="226" y="256" type="curve" smooth="yes"/>
      <point x="226" y="134"/>
      <point x="334" y="80"/>
      <point x="440" y="80" type="curve" smooth="yes"/>
      <point x="607" y="80"/>
      <point x="771" y="158"/>
    </contour>
    <contour>
      <point x="1450" y="606" type="line" smooth="no"/>
      <point x="1449" y="816"/>
      <point x="1378" y="941"/>
      <point x="1187" y="941" type="curve" smooth="yes"/>
      <point x="1003" y="941"/>
      <point x="911" y="774"/>
      <point x="901" y="592" type="curve" smooth="no"/>
    </contour>
  </outline>
</glyph>
<glyph name="eth" format="1">
  <advance width="1053"/>
  <unicode hex="00f0"/>
  <outline>
    <contour>
      <point x="368" y="1101" type="line" smooth="no"/>
      <point x="559" y="1225" type="line" smooth="no"/>
      <point x="465" y="1296"/>
      <point x="348" y="1339"/>
      <point x="169" y="1339" type="curve" smooth="no"/>
      <point x="169" y="1432" type="line" smooth="no"/>
      <point x="390" y="1432"/>
      <point x="536" y="1372"/>
      <point x="648" y="1283" type="curve" smooth="no"/>
      <point x="854" y="1418" type="line" smooth="no"/>
      <point x="907" y="1343" type="line" smooth="no"/>
      <point x="715" y="1218" type="line" smooth="no"/>
      <point x="845" y="1083"/>
      <point x="959" y="806"/>
      <point x="959" y="529" type="curve" smooth="yes"/>
      <point x="959" y="213.003"/>
      <point x="835.003" y="-25"/>
      <point x="518" y="-25" type="curve" smooth="yes"/>
      <point x="231" y="-25"/>
      <point x="94" y="208"/>
      <point x="94" y="454" type="curve" smooth="yes"/>
      <point x="94" y="746"/>
      <point x="294" y="908"/>
      <point x="503" y="908" type="curve" smooth="yes"/>
      <point x="611" y="908"/>
      <point x="722" y="865"/>
      <point x="810" y="774" type="curve" smooth="no"/>
      <point x="791" y="920"/>
      <point x="695" y="1085"/>
      <point x="618" y="1155" type="curve" smooth="no"/>
      <point x="421" y="1026" type="line" smooth="no"/>
    </contour>
    <contour>
      <point x="523" y="798" type="curve" smooth="yes"/>
      <point x="366" y="798"/>
      <point x="235" y="668"/>
      <point x="235" y="439" type="curve" smooth="yes"/>
      <point x="235" y="216"/>
      <point x="355" y="84"/>
      <point x="518" y="84" type="curve" smooth="yes"/>
      <point x="729" y="84"/>
      <point x="823" y="262"/>
      <point x="823" y="511" type="curve" smooth="yes"/>
      <point x="823" y="535"/>
      <point x="822" y="624"/>
      <point x="816" y="650" type="curve" smooth="no"/>
      <point x="724" y="751"/>
      <point x="619" y="798"/>
    </contour>
  </outline>
</glyph>
<glyph name="oslash" format="1">
  <advance width="1064"/>
  <unicode hex="00f8"/>
  <outline>
    <contour>
      <point x="532" y="940" type="curve" smooth="yes"/>
      <point x="593" y="940"/>
      <point x="643" y="925"/>
      <point x="683" y="898" type="curve" smooth="no"/>
      <point x="334" y="164" type="line" smooth="no"/>
      <point x="260" y="247"/>
      <point x="237" y="382"/>
      <point x="237" y="513" type="curve" smooth="yes"/>
      <point x="237" y="720"/>
      <point x="298" y="940"/>
    </contour>
    <contour>
      <point x="533" y="81" type="curve" smooth="yes"/>
      <point x="481" y="81"/>
      <point x="437" y="92"/>
      <point x="400" y="112" type="curve" smooth="no"/>
      <point x="745" y="838" type="line" smooth="no"/>
      <point x="807" y="755"/>
      <point x="828" y="631"/>
      <point x="828" y="511" type="curve" smooth="yes"/>
      <point x="828" y="301"/>
      <point x="766" y="81"/>
    </contour>
    <contour>
      <point x="972" y="513" type="curve" smooth="yes"/>
      <point x="972" y="725"/>
      <point x="905" y="872"/>
      <point x="801" y="956" type="curve" smooth="no"/>
      <point x="906" y="1178" type="line" smooth="no"/>
      <point x="834" y="1216" type="line" smooth="no"/>
      <point x="732" y="1001" type="line" smooth="no"/>
      <point x="673" y="1030"/>
      <point x="606" y="1044"/>
      <point x="533" y="1044" type="curve" smooth="yes"/>
      <point x="279" y="1044"/>
      <point x="92" y="872"/>
      <point x="92" y="510" type="curve" smooth="yes"/>
      <point x="92" y="290"/>
      <point x="163" y="135"/>
      <point x="280" y="50" type="curve" smooth="no"/>
      <point x="181" y="-159" type="line" smooth="no"/>
      <point x="254" y="-197" type="line" smooth="no"/>
      <point x="352" y="10" type="line" smooth="no"/>
      <point x="406" y="-13"/>
      <point x="466" y="-24"/>
      <point x="532" y="-24" type="curve" smooth="yes"/>
      <point x="797" y="-24"/>
      <point x="972" y="162"/>
    </contour>
  </outline>
</glyph>
<glyph name="thorn" format="1">
  <advance width="1058"/>
  <unicode hex="00fe"/>
  <outline>
    <contour>
      <point x="272" y="1464" type="line" smooth="no"/>
      <point x="272" y="874" type="line" smooth="no"/>
      <point x="335" y="982"/>
      <point x="431" y="1044"/>
      <point x="573" y="1044" type="curve" smooth="yes"/>
      <point x="848" y="1044"/>
      <point x="967" y="812"/>
      <point x="967" y="520" type="curve" smooth="yes"/>
      <point x="967" y="217"/>
      <point x="846" y="-21"/>
      <point x="580" y="-24" type="curve" smooth="no"/>
      <point x="441" y="-24"/>
      <point x="332" y="40"/>
      <point x="273" y="154" type="curve" smooth="no"/>
      <point x="274" y="110"/>
      <point x="273" y="65"/>
      <point x="273" y="21" type="curve" smooth="yes"/>
      <point x="273" y="-378" type="line" smooth="no"/>
      <point x="131" y="-394" type="line" smooth="no"/>
      <point x="131" y="1464" type="line" smooth="no"/>
    </contour>
    <contour>
      <point x="822" y="521" type="curve" smooth="yes"/>
      <point x="822" y="810"/>
      <point x="693" y="943"/>
      <point x="559" y="943" type="curve" smooth="yes"/>
      <point x="418" y="943"/>
      <point x="273" y="793"/>
      <point x="273" y="519" type="curve" smooth="yes"/>
      <point x="273" y="294"/>
      <point x="327" y="81"/>
      <point x="559" y="81" type="curve" smooth="yes"/>
      <point x="724" y="81"/>
      <point x="822" y="243"/>
    </contour>
  </outline>
</glyph>
<glyph name="dcroat" format="1">
  <advance width="1024"/>
  <unicode hex="0111"/>
  <outline>
    <contour>
      <point x="504.5" y="1196.2" type="line" smooth="no"/>
      <point x="504.5" y="1282.2" type="line" smooth="no"/>
      <point x="1024" y="1282.2" type="line" smooth="no"/>
      <point x="1024" y="1196.2" type="line" smooth="no"/>
    </contour>
    <contour>
      <point x="96" y="500" type="curve" smooth="yes"/>
      <point x="96" y="832"/>
      <point x="230" y="1044"/>
      <point x="484" y="1044" type="curve" smooth="yes"/>
      <point x="629" y="1044"/>
      <point x="748" y="986"/>
      <point x="794" y="863" type="curve" smooth="no"/>
      <point x="794" y="1474" type="line" smooth="no"/>
      <point x="937" y="1474" type="line" smooth="no"/>
      <point x="937" y="0" type="line" smooth="no"/>
      <point x="823" y="0" type="line" smooth="no"/>
      <point x="804" y="172" type="line" smooth="no"/>
      <point x="752" y="51"/>
      <point x="629" y="-24"/>
      <point x="488" y="-24" type="curve" smooth="yes"/>
      <point x="239" y="-24"/>
      <point x="96" y="188"/>
    </contour>
    <contour>
      <point x="506" y="81" type="curve" smooth="yes"/>
      <point x="636" y="81"/>
      <point x="800" y="127"/>
      <point x="800" y="499" type="curve" smooth="yes"/>
      <point x="800" y="748"/>
      <point x="736" y="940"/>
      <point x="504" y="940" type="curve" smooth="yes"/>
      <point x="332" y="940"/>
      <point x="242" y="765"/>
      <point x="242" y="499" type="curve" smooth="yes"/>
      <point x="242" y="262"/>
      <point x="336" y="81"/>
    </contour>
  </outline>
</glyph>
<glyph name="hcircumflex" format="1">
  <advance width="1106"/>
  <unicode hex="0125"/>
  <outline>
    <component base="h"/>
    <contour>
      <point x="557" y="1823" type="line" smooth="no"/>
      <point x="692" y="1823" type="line" smooth="no"/>
      <point x="857" y="1503" type="line" smooth="no"/>
      <point x="765" y="1503" type="line" smooth="no"/>
      <point x="625" y="1731" type="line" smooth="no"/>
      <point x="474" y="1503" type="line" smooth="no"/>
      <point x="382" y="1503" type="line" smooth="no"/>
    </contour>
  </outline>
</glyph>
<glyph name="hbar" format="1">
  <advance width="1117"/>
  <unicode hex="0127"/>
  <outline>
    <contour>
      <point x="-1" y="1205" type="line" smooth="no"/>
      <point x="-1" y="1299" type="line" smooth="no"/>
      <point x="140" y="1299" type="line" smooth="no"/>
      <point x="140" y="1473" type="line" smooth="no"/>
      <point x="283" y="1473" type="line" smooth="no"/>
      <point x="283" y="1299" type="line" smooth="no"/>
      <point x="550" y="1299" type="line" smooth="no"/>
      <point x="550" y="1205" type="line" smooth="no"/>
      <point x="283" y="1205" type="line" smooth="no"/>
      <point x="283" y="1053" type="line" smooth="yes"/>
      <point x="283" y="989"/>
      <point x="283" y="925"/>
      <point x="282" y="862" type="curve" smooth="no"/>
      <point x="370" y="999"/>
      <point x="501" y="1044"/>
      <point x="634" y="1044" type="curve" smooth="yes"/>
      <point x="960" y="1044"/>
      <point x="991" y="784"/>
      <point x="991" y="583" type="curve" smooth="yes"/>
      <point x="991" y="0" type="line" smooth="no"/>
      <point x="849" y="0" type="line" smooth="no"/>
      <point x="849" y="594" type="line" smooth="yes"/>
      <point x="849" y="807"/>
      <point x="797" y="940"/>
      <point x="613" y="940" type="curve" smooth="yes"/>
      <point x="359" y="940"/>
      <point x="283" y="723"/>
      <point x="283" y="483" type="curve" smooth="yes"/>
      <point x="283" y="0" type="line" smooth="no"/>
      <point x="140" y="0" type="line" smooth="no"/>
      <point x="140" y="1205" type="line" smooth="no"/>
    </contour>
  </outline>
</glyph>
<glyph name="kgreenlandic" format="1">
  <advance width="1010"/>
  <unicode hex="0138"/>
  <outline>
    <contour>
      <point x="797" y="1023" type="line" smooth="no"/>
      <point x="959" y="1023" type="line" smooth="no"/>
      <point x="599" y="621" type="line" smooth="no"/>
      <point x="1018" y="0" type="line" smooth="no"/>
      <point x="858" y="0" type="line" smooth="no"/>
      <point x="504" y="544" type="line" smooth="no"/>
      <point x="272" y="299" type="line" smooth="no"/>
      <point x="272" y="0" type="line" smooth="no"/>
      <point x="130" y="0" type="line" smooth="no"/>
      <point x="130" y="1024" type="line" smooth="no"/>
      <point x="271" y="1024" type="line" smooth="no"/>
      <point x="271" y="446" type="line" smooth="no"/>
    </contour>
  </outline>
</glyph>
<glyph name="lslash" format="1">
  <advance width="421"/>
  <unicode hex="0142"/>
  <outline>
    <contour>
      <point x="-26" y="652" type="line" smooth="no"/>
      <point x="-26" y="787" type="line" smooth="no"/>
      <point x="140" y="879" type="line" smooth="no"/>
      <point x="140" y="1474" type="line" smooth="no"/>
      <point x="283" y="1474" type="line" smooth="no"/>
      <point x="283" y="949" type="line" smooth="no"/>
      <point x="448" y="1034" type="line" smooth="no"/>
      <point x="448" y="899" type="line" smooth="no"/>
      <point x="283" y="814" type="line" smooth="no"/>
      <point x="283" y="-1" type="line" smooth="no"/>
      <point x="140" y="-1" type="line" smooth="no"/>
      <point x="140" y="744" type="line" smooth="no"/>
    </contour>
  </outline>
</glyph>
<glyph name="OE" format="1">
  <advance width="2171"/>
  <unicode hex="0152"/>
  <outline>
    <contour>
      <point x="720" y="1374" type="curve" smooth="yes"/>
      <point x="1074" y="1374"/>
      <point x="1164" y="1130"/>
      <point x="1164" y="740" type="curve" smooth="yes"/>
      <point x="1164" y="298"/>
      <point x="1060" y="93"/>
      <point x="721" y="93" type="curve" smooth="yes"/>
      <point x="383" y="93"/>
      <point x="265" y="302"/>
      <point x="265" y="741" type="curve" smooth="yes"/>
      <point x="265" y="1130"/>
      <point x="368" y="1374"/>
    </contour>
    <contour>
      <point x="2121" y="113" type="line" smooth="no"/>
      <point x="1310" y="113" type="line" smooth="no"/>
      <point x="1310" y="723" type="line" smooth="no"/>
      <point x="1996" y="723" type="line" smooth="no"/>
      <point x="1996" y="838" type="line" smooth="no"/>
      <point x="1310" y="838" type="line" smooth="no"/>
      <point x="1310" y="1352" type="line" smooth="no"/>
      <point x="2110" y="1352" type="line" smooth="no"/>
      <point x="2110" y="1464" type="line" smooth="no"/>
      <point x="1163" y="1464" type="line" smooth="no"/>
      <point x="1163" y="1464"/>
      <point x="1164" y="1352"/>
      <point x="1163" y="1288" type="curve" smooth="no"/>
      <point x="1073" y="1430"/>
      <point x="926" y="1491"/>
      <point x="721" y="1491" type="curve" smooth="yes"/>
      <point x="342" y="1491"/>
      <point x="112" y="1282"/>
      <point x="112" y="740" type="curve" smooth="yes"/>
      <point x="112" y="186"/>
      <point x="337" y="-25"/>
      <point x="720" y="-25" type="curve" smooth="yes"/>
      <point x="929" y="-25"/>
      <point x="1074" y="37"/>
      <point x="1164" y="180" type="curve" smooth="no"/>
      <point x="1164" y="117"/>
      <point x="1165" y="1"/>
      <point x="1164" y="0" type="curve" smooth="no"/>
      <point x="2121" y="0" type="line" smooth="no"/>
    </contour>
    <contour>
      <point x="1086" y="1464" type="move" smooth="yes"/>
    </contour>
  </outline>
</glyph>
<glyph name="oe" format="1">
  <advance width="1878"/>
  <unicode hex="0153"/>
  <outline>
    <contour>
      <point x="884" y="510" type="curve" smooth="yes"/>
      <point x="884" y="721"/>
      <point x="822" y="940"/>
      <point x="591" y="940" type="curve" smooth="yes"/>
      <point x="358" y="940"/>
      <point x="299" y="719"/>
      <point x="299" y="512" type="curve" smooth="yes"/>
      <point x="299" y="302"/>
      <point x="359" y="80"/>
      <point x="592" y="80" type="curve" smooth="yes"/>
      <point x="824" y="80"/>
      <point x="884" y="299"/>
    </contour>
    <contour>
      <point x="1315" y="942" type="curve" smooth="yes"/>
      <point x="1133" y="942"/>
      <point x="1038" y="792"/>
      <point x="1028" y="592" type="curve" smooth="no"/>
      <point x="1589" y="592" type="line" smooth="no"/>
      <point x="1587" y="802"/>
      <point x="1506" y="942"/>
    </contour>
    <contour>
      <point x="1319" y="1044" type="curve" smooth="yes"/>
      <point x="1603" y="1043"/>
      <point x="1726" y="828"/>
      <point x="1726" y="558" type="curve" smooth="no"/>
      <point x="1725" y="549"/>
      <point x="1724" y="516"/>
      <point x="1722" y="500" type="curve" smooth="no"/>
      <point x="1026" y="500" type="line" smooth="no"/>
      <point x="1026" y="289"/>
      <point x="1095" y="80"/>
      <point x="1330" y="80" type="curve" smooth="yes"/>
      <point x="1483" y="80"/>
      <point x="1565" y="203"/>
      <point x="1608" y="317" type="curve" smooth="no"/>
      <point x="1704" y="276" type="line" smooth="no"/>
      <point x="1651" y="79"/>
      <point x="1499" y="-21"/>
      <point x="1332" y="-24" type="curve" smooth="no"/>
      <point x="1141" y="-24"/>
      <point x="1023" y="65"/>
      <point x="957" y="199" type="curve" smooth="no"/>
      <point x="885" y="51"/>
      <point x="755" y="-24"/>
      <point x="591" y="-24" type="curve" smooth="yes"/>
      <point x="328" y="-24"/>
      <point x="156" y="162"/>
      <point x="156" y="511" type="curve" smooth="yes"/>
      <point x="156" y="872"/>
      <point x="340" y="1044"/>
      <point x="593" y="1044" type="curve" smooth="yes"/>
      <point x="750" y="1044"/>
      <point x="885" y="971"/>
      <point x="959" y="819" type="curve" smooth="no"/>
      <point x="1029" y="960"/>
      <point x="1152" y="1044"/>
    </contour>
    <contour>
      <point x="939" y="1023" type="move" smooth="yes"/>
    </contour>
  </outline>
</glyph>
<glyph name="uni01CB" format="1">
  <advance width="1973"/>
  <unicode hex="01cb"/>
  <outline>
    <contour>
      <point x="1705" y="-91" type="curve" smooth="yes"/>
      <point x="1705" y="1023" type="line" smooth="no"/>
      <point x="1847" y="1023" type="line" smooth="no"/>
      <point x="1847" y="-12" type="line" smooth="yes"/>
      <point x="1847" y="-217"/>
      <point x="1820" y="-325"/>
      <point x="1628" y="-325" type="curve" smooth="yes"/>
      <point x="1577" y="-325"/>
      <point x="1514" y="-312"/>
      <point x="1466" y="-284" type="curve" smooth="no"/>
      <point x="1490" y="-177" type="line" smooth="no"/>
      <point x="1528" y="-191"/>
      <point x="1576" y="-208"/>
      <point x="1609" y="-208" type="curve" smooth="yes"/>
      <point x="1668" y="-208"/>
      <point x="1705" y="-182"/>
    </contour>
    <contour>
      <point x="1707" y="1242" type="line" smooth="no"/>
      <point x="1707" y="1421" type="line" smooth="no"/>
      <point x="1848" y="1421" type="line" smooth="no"/>
      <point x="1848" y="1242" type="line" smooth="no"/>
    </contour>
    <contour>
      <point x="148" y="0" type="line" smooth="no"/>
      <point x="148" y="1464" type="line" smooth="no"/>
      <point x="311" y="1464" type="line" smooth="no"/>
      <point x="1214" y="221" type="line" smooth="no"/>
      <point x="1214" y="1464" type="line" smooth="no"/>
      <point x="1343" y="1464" type="line" smooth="no"/>
      <point x="1343" y="0" type="line" smooth="no"/>
      <point x="1211" y="0" type="line" smooth="no"/>
      <point x="281" y="1290" type="line" smooth="no"/>
      <point x="281" y="0" type="line" smooth="no"/>
    </contour>
  </outline>
</glyph>
<glyph name="uni0237" format="1">
  <advance width="530"/>
  <unicode hex="0237"/>
  <outline>
    <contour>
      <point x="262" y="-87" type="curve" smooth="yes"/>
      <point x="262" y="1023" type="line" smooth="no"/>
      <point x="404" y="1023" type="line" smooth="no"/>
      <point x="404" y="-12" type="line" smooth="yes"/>
      <point x="404" y="-217"/>
      <point x="377" y="-325"/>
      <point x="185" y="-325" type="curve" smooth="yes"/>
      <point x="134" y="-325"/>
      <point x="81" y="-309"/>
      <point x="33" y="-281" type="curve" smooth="no"/>
      <point x="57" y="-191" type="line" smooth="no"/>
      <point x="95" y="-205"/>
      <point x="133" y="-214"/>
      <point x="166" y="-214" type="curve" smooth="yes"/>
      <point x="225" y="-214"/>
      <point x="262" y="-178"/>
    </contour>
  </outline>
</glyph>
<glyph name="circumflex" format="1">
  <advance width="838"/>
  <unicode hex="02c6"/>
  <outline>
    <contour>
      <point x="327" y="1492" type="line" smooth="no"/>
      <point x="522" y="1492" type="line" smooth="no"/>
      <point x="697" y="1172" type="line" smooth="no"/>
      <point x="605" y="1172" type="line" smooth="no"/>
      <point x="424" y="1390" type="line" smooth="no"/>
      <point x="244" y="1172" type="line" smooth="no"/>
      <point x="152" y="1172" type="line" smooth="no"/>
    </contour>
  </outline>
</glyph>
<glyph name="caron" format="1">
  <advance width="835"/>
  <unicode hex="02c7"/>
  <outline>
    <contour>
      <point x="523" y="1172" type="line" smooth="no"/>
      <point x="328" y="1172" type="line" smooth="no"/>
      <point x="183" y="1492" type="line" smooth="no"/>
      <point x="275" y="1492" type="line" smooth="no"/>
      <point x="425" y="1264" type="line" smooth="no"/>
      <point x="576" y="1492" type="line" smooth="no"/>
      <point x="668" y="1492" type="line" smooth="no"/>
    </contour>
  </outline>
</glyph>
<glyph name="ring" format="1">
  <advance width="728"/>
  <unicode hex="02da"/>
  <outline>
    <contour>
      <point x="364" y="1592" type="curve" smooth="yes"/>
      <point x="217" y="1592"/>
      <point x="143" y="1482"/>
      <point x="143" y="1374" type="curve" smooth="yes"/>
      <point x="143" y="1266"/>
      <point x="216" y="1160"/>
      <point x="364" y="1160" type="curve" smooth="yes"/>
      <point x="515" y="1160"/>
      <point x="591" y="1268"/>
      <point x="591" y="1376" type="curve" smooth="yes"/>
      <point x="591" y="1484"/>
      <point x="516" y="1592"/>
    </contour>
    <contour>
      <point x="241" y="1376" type="curve" smooth="yes"/>
      <point x="241" y="1439"/>
      <point x="282" y="1508"/>
      <point x="364" y="1508" type="curve" smooth="yes"/>
      <point x="446" y="1508"/>
      <point x="487" y="1439"/>
      <point x="487" y="1376" type="curve" smooth="yes"/>
      <point x="487" y="1313"/>
      <point x="446" y="1243"/>
      <point x="364" y="1243" type="curve" smooth="yes"/>
      <point x="282" y="1243"/>
      <point x="241" y="1313"/>
    </contour>
  </outline>
</glyph>
<glyph name="ogonek" format="1">
  <advance width="462"/>
  <unicode hex="02db"/>
  <outline>
    <contour>
      <point x="315" y="0" type="line" smooth="no"/>
      <point x="281" y="-74"/>
      <point x="238" y="-161"/>
      <point x="238" y="-219" type="curve" smooth="yes"/>
      <point x="238" y="-257"/>
      <point x="257" y="-283"/>
      <point x="311" y="-283" type="curve" smooth="yes"/>
      <point x="321" y="-283"/>
      <point x="333" y="-281"/>
      <point x="346" y="-278" type="curve" smooth="no"/>
      <point x="346" y="-361" type="line" smooth="no"/>
      <point x="322" y="-367"/>
      <point x="300" y="-369"/>
      <point x="281" y="-369" type="curve" smooth="yes"/>
      <point x="175" y="-369"/>
      <point x="117" y="-309"/>
      <point x="117" y="-241" type="curve" smooth="yes"/>
      <point x="117" y="-152"/>
      <point x="197" y="-34"/>
      <point x="244" y="0" type="curve" smooth="no"/>
    </contour>
  </outline>
</glyph>
<glyph name="tilde" format="1">
  <advance width="798"/>
  <unicode hex="02dc"/>
  <outline>
    <contour>
      <point x="269" y="1288" type="curve" smooth="no"/>
      <point x="325" y="1284"/>
      <point x="446" y="1202"/>
      <point x="540" y="1202" type="curve" smooth="yes"/>
      <point x="598" y="1202"/>
      <point x="675" y="1239"/>
      <point x="675" y="1360" type="curve" smooth="yes"/>
      <point x="675" y="1371"/>
      <point x="674" y="1383"/>
      <point x="673" y="1395" type="curve" smooth="no"/>
      <point x="576" y="1395" type="line" smooth="no"/>
      <point x="576" y="1336"/>
      <point x="564" y="1299"/>
      <point x="537" y="1299" type="curve" smooth="yes"/>
      <point x="487" y="1299"/>
      <point x="331" y="1391"/>
      <point x="253" y="1391" type="curve" smooth="yes"/>
      <point x="196" y="1391"/>
      <point x="125" y="1370"/>
      <point x="125" y="1241" type="curve" smooth="yes"/>
      <point x="125" y="1229"/>
      <point x="125" y="1215"/>
      <point x="127" y="1200" type="curve" smooth="no"/>
      <point x="223" y="1200" type="line" smooth="no"/>
      <point x="223" y="1260"/>
      <point x="245" y="1288"/>
    </contour>
  </outline>
</glyph>
<glyph name="uni030F" format="1">
  <advance width="744"/>
  <unicode hex="030f"/>
  <outline>
    <contour>
      <point x="74" y="1492" type="line" smooth="no"/>
      <point x="256" y="1492" type="line" smooth="no"/>
      <point x="381" y="1172" type="line" smooth="no"/>
      <point x="306" y="1172" type="line" smooth="no"/>
    </contour>
    <contour>
      <point x="372" y="1492" type="line" smooth="no"/>
      <point x="554" y="1492" type="line" smooth="no"/>
      <point x="679" y="1172" type="line" smooth="no"/>
      <point x="610" y="1172" type="line" smooth="no"/>
    </contour>
  </outline>
</glyph>
<glyph name="commaaccent" format="1">
  <advance width="444"/>
  <unicode hex="0326"/>
  <outline>
    <contour>
      <point x="208" y="0" type="line" smooth="no"/>
    </contour>
    <contour>
      <point x="100" y="-100" type="line" smooth="no"/>
      <point x="300" y="-100" type="line" smooth="no"/>
      <point x="300" y="-185" type="line" smooth="no"/>
      <point x="295" y="-343"/>
      <point x="295" y="-482"/>
      <point x="163" y="-573" type="curve" smooth="no"/>
      <point x="114" y="-511" type="line" smooth="no"/>
      <point x="139" y="-491"/>
      <point x="191" y="-414"/>
      <point x="194" y="-293" type="curve" smooth="no"/>
      <point x="100" y="-293" type="line" smooth="no"/>
    </contour>
    <contour>
      <point x="219.5" y="0" type="line" smooth="no"/>
    </contour>
    <contour>
      <point x="219.5" y="0" type="line" smooth="no"/>
    </contour>
    <contour>
      <point x="219.5" y="0" type="line" smooth="no"/>
    </contour>
    <contour>
      <point x="219.5" y="0" type="move" smooth="yes"/>
    </contour>
  </outline>
</glyph>
<glyph name="uni0326" format="1">
  <advance width="409"/>
  <unicode hex="0326"/>
  <outline>
    <contour>
      <point x="210" y="-168" type="curve" smooth="no"/>
      <point x="100" y="-168" type="line" smooth="no"/>
      <point x="100" y="0" type="line" smooth="no"/>
      <point x="300" y="0" type="line" smooth="no"/>
      <point x="300" y="-160" type="line" smooth="yes"/>
      <point x="300" y="-279"/>
      <point x="233" y="-397"/>
      <point x="190" y="-397" type="curve" smooth="no"/>
      <point x="143" y="-375" type="line" smooth="no"/>
      <point x="201" y="-332"/>
      <point x="209.152" y="-219.067"/>
    </contour>
  </outline>
</glyph>
<glyph name="mu" format="1">
  <advance width="1119"/>
  <unicode hex="03bc"/>
  <outline>
    <contour>
      <point x="842" y="1023" type="line" smooth="no"/>
      <point x="984" y="1023" type="line" smooth="no"/>
      <point x="984" y="0" type="line" smooth="no"/>
      <point x="864" y="0" type="line" smooth="no"/>
      <point x="843" y="159" type="line" smooth="no"/>
      <point x="765" y="22"/>
      <point x="648" y="-27"/>
      <point x="524" y="-27" type="curve" smooth="yes"/>
      <point x="438" y="-27"/>
      <point x="352" y="8"/>
      <point x="282" y="87" type="curve" smooth="no"/>
      <point x="282" y="87" type="line" smooth="no"/>
      <point x="282" y="-224" type="line" smooth="no"/>
      <point x="135" y="-224" type="line" smooth="no"/>
      <point x="135" y="1023" type="line" smooth="no"/>
      <point x="282" y="1023" type="line" smooth="no"/>
      <point x="282" y="436" type="line" smooth="yes"/>
      <point x="282" y="235"/>
      <point x="349" y="87"/>
      <point x="520" y="87" type="curve" smooth="yes"/>
      <point x="783" y="87"/>
      <point x="842" y="331"/>
      <point x="842" y="436" type="curve" smooth="yes"/>
    </contour>
  </outline>
</glyph>
<glyph name="endash" format="1">
  <advance width="1024"/>
  <unicode hex="2013"/>
  <outline>
    <contour>
      <point x="135" y="334" type="line" smooth="no"/>
      <point x="135" y="420" type="line" smooth="no"/>
      <point x="889" y="420" type="line" smooth="no"/>
      <point x="889" y="334" type="line" smooth="no"/>
    </contour>
  </outline>
</glyph>
<glyph name="quoteleft" format="1">
  <advance width="330"/>
  <unicode hex="2018"/>
  <outline>
    <contour>
      <point x="145.002" y="1469" type="curve" smooth="no"/>
      <point x="145.002" y="1468"/>
      <point x="213.002" y="1431"/>
      <point x="214.002" y="1431" type="curve" smooth="no"/>
      <point x="157.002" y="1335"/>
      <point x="136.002" y="1298"/>
      <point x="136.002" y="1200" type="curve" smooth="no"/>
      <point x="230.002" y="1187" type="line" smooth="no"/>
      <point x="230.002" y="1122"/>
      <point x="229.002" y="1057"/>
      <point x="230.002" y="992" type="curve" smooth="no"/>
      <point x="30.0022" y="992" type="line" smooth="no"/>
      <point x="30.0022" y="1089" type="line" smooth="yes"/>
      <point x="30.0022" y="1235"/>
      <point x="28.0022" y="1371"/>
    </contour>
  </outline>
</glyph>
<glyph name="quoteright" format="1">
  <advance width="330"/>
  <unicode hex="2019"/>
  <outline>
    <contour>
      <point x="100" y="1292" type="curve" smooth="yes"/>
      <point x="100" y="1464" type="line" smooth="no"/>
      <point x="300" y="1464" type="line" smooth="no"/>
      <point x="296" y="1284"/>
      <point x="320" y="1104"/>
      <point x="160" y="991" type="curve" smooth="no"/>
      <point x="111" y="1054" type="line" smooth="no"/>
      <point x="136" y="1077"/>
      <point x="187" y="1154"/>
      <point x="190" y="1274" type="curve" smooth="no"/>
      <point x="190" y="1273"/>
      <point x="100" y="1291"/>
    </contour>
  </outline>
</glyph>
<glyph name="quotesinglbase" format="1">
  <advance width="436"/>
  <unicode hex="201a"/>
  <outline>
    <contour>
      <point x="128" y="-81" type="curve" smooth="yes"/>
      <point x="128" y="93" type="line" smooth="no"/>
      <point x="320" y="93" type="line" smooth="no"/>
      <point x="316" y="-87"/>
      <point x="319" y="-269"/>
      <point x="159" y="-382" type="curve" smooth="no"/>
      <point x="110" y="-319" type="line" smooth="no"/>
      <point x="135" y="-296"/>
      <point x="186" y="-219"/>
      <point x="189" y="-99" type="curve" smooth="no"/>
      <point x="189" y="-99"/>
      <point x="128" y="-82"/>
    </contour>
  </outline>
</glyph>
<glyph name="quotedblleft" format="1">
  <advance width="630"/>
  <unicode hex="201c"/>
  <outline>
    <contour>
      <point x="459" y="1473" type="curve" smooth="no"/>
      <point x="508" y="1410" type="line" smooth="no"/>
      <point x="483" y="1387"/>
      <point x="430" y="1319"/>
      <point x="427" y="1196" type="curve" smooth="no"/>
      <point x="530" y="1183" type="line" smooth="no"/>
      <point x="530" y="995" type="line" smooth="no"/>
      <point x="330" y="995" type="line" smooth="no"/>
      <point x="330" y="1084" type="line" smooth="no"/>
      <point x="335" y="1242"/>
      <point x="325" y="1378"/>
    </contour>
    <contour>
      <point x="165" y="1473" type="curve" smooth="no"/>
      <point x="214" y="1410" type="line" smooth="no"/>
      <point x="189" y="1387"/>
      <point x="136" y="1319"/>
      <point x="133" y="1197" type="curve" smooth="no"/>
      <point x="230" y="1183" type="line" smooth="no"/>
      <point x="230" y="995" type="line" smooth="no"/>
      <point x="30" y="995" type="line" smooth="no"/>
      <point x="30" y="1084" type="line" smooth="yes"/>
      <point x="30" y="1240"/>
      <point x="31" y="1379"/>
    </contour>
  </outline>
</glyph>
<glyph name="quotedblright" format="1">
  <advance width="631"/>
  <unicode hex="201d"/>
  <outline>
    <contour>
      <point x="401" y="1292" type="line" smooth="no"/>
      <point x="401" y="1464" type="line" smooth="no"/>
      <point x="601" y="1464" type="line" smooth="no"/>
      <point x="596" y="1285"/>
      <point x="612" y="1103"/>
      <point x="453" y="991" type="curve" smooth="no"/>
      <point x="402" y="1054" type="line" smooth="no"/>
      <point x="427" y="1075"/>
      <point x="479" y="1152"/>
      <point x="482" y="1273" type="curve" smooth="no"/>
    </contour>
    <contour>
      <point x="100" y="1292" type="curve" smooth="yes"/>
      <point x="100" y="1464" type="line" smooth="no"/>
      <point x="301" y="1464" type="line" smooth="no"/>
      <point x="297" y="1284"/>
      <point x="320" y="1104"/>
      <point x="160" y="991" type="curve" smooth="no"/>
      <point x="110" y="1054" type="line" smooth="no"/>
      <point x="136" y="1077"/>
      <point x="187" y="1154"/>
      <point x="190" y="1274" type="curve" smooth="no"/>
      <point x="190" y="1273"/>
      <point x="100" y="1291"/>
    </contour>
  </outline>
</glyph>
<glyph name="quotedblbase" format="1">
  <advance width="744"/>
  <unicode hex="201e"/>
  <outline>
    <contour>
      <point x="434" y="-81" type="curve" smooth="yes"/>
      <point x="434" y="93" type="line" smooth="no"/>
      <point x="628" y="93" type="line" smooth="no"/>
      <point x="624" y="-87"/>
      <point x="627" y="-269"/>
      <point x="467" y="-382" type="curve" smooth="no"/>
      <point x="418" y="-319" type="line" smooth="no"/>
      <point x="443" y="-296"/>
      <point x="494" y="-219"/>
      <point x="497" y="-99" type="curve" smooth="no"/>
      <point x="497" y="-99"/>
      <point x="434" y="-82"/>
    </contour>
    <contour>
      <point x="126" y="-81" type="curve" smooth="no"/>
      <point x="126" y="93" type="line" smooth="no"/>
      <point x="320" y="93" type="line" smooth="no"/>
      <point x="316" y="-87"/>
      <point x="319" y="-269"/>
      <point x="159" y="-382" type="curve" smooth="no"/>
      <point x="110" y="-319" type="line" smooth="no"/>
      <point x="135" y="-296"/>
      <point x="186" y="-219"/>
      <point x="189" y="-99" type="curve" smooth="no"/>
      <point x="189" y="-99"/>
      <point x="125" y="-82"/>
    </contour>
  </outline>
</glyph>
<glyph name="guilsinglright" format="1">
  <advance width="528"/>
  <unicode hex="203a"/>
  <outline>
    <contour>
      <point x="435" y="552" type="line" smooth="no"/>
      <point x="435" y="749" type="line" smooth="no"/>
      <point x="51" y="1050" type="line" smooth="no"/>
      <point x="51" y="909" type="line" smooth="no"/>
      <point x="337" y="650" type="line" smooth="no"/>
      <point x="51" y="393" type="line" smooth="no"/>
      <point x="51" y="251" type="line" smooth="no"/>
    </contour>
  </outline>
</glyph>
<glyph name="uni2074" format="1">
  <advance width="1441"/>
  <unicode hex="2074"/>
  <outline>
    <contour>
      <point x="590" y="924" type="line" smooth="no"/>
      <point x="590" y="772" type="line" smooth="no"/>
      <point x="705" y="772" type="line" smooth="no"/>
      <point x="705" y="924" type="line" smooth="no"/>
      <point x="805" y="924" type="line" smooth="no"/>
      <point x="805" y="1006" type="line" smooth="no"/>
      <point x="705" y="1006" type="line" smooth="no"/>
      <point x="705" y="1465" type="line" smooth="no"/>
      <point x="559" y="1465" type="line" smooth="no"/>
      <point x="239" y="992" type="line" smooth="no"/>
      <point x="239" y="924" type="line" smooth="no"/>
    </contour>
    <contour>
      <point x="353" y="1006" type="line" smooth="no"/>
      <point x="590" y="1357" type="line" smooth="no"/>
      <point x="590" y="1006" type="line" smooth="no"/>
    </contour>
  </outline>
</glyph>
<glyph name="Euro" format="1">
  <advance width="1275"/>
  <unicode hex="20ac"/>
  <outline>
    <contour>
      <point x="1154" y="340" type="curve" smooth="no"/>
      <point x="1032" y="379" type="line" smooth="no"/>
      <point x="969" y="205"/>
      <point x="914" y="97"/>
      <point x="689" y="95" type="curve" smooth="no"/>
      <point x="435" y="95"/>
      <point x="310" y="262"/>
      <point x="275" y="586" type="curve" smooth="no"/>
      <point x="641" y="586" type="line" smooth="no"/>
      <point x="641" y="672" type="line" smooth="no"/>
      <point x="268" y="672" type="line" smooth="no"/>
      <point x="267" y="694"/>
      <point x="267" y="778"/>
      <point x="268" y="796" type="curve" smooth="no"/>
      <point x="641" y="796" type="line" smooth="no"/>
      <point x="641" y="882" type="line" smooth="no"/>
      <point x="274" y="882" type="line" smooth="no"/>
      <point x="305" y="1189"/>
      <point x="414" y="1376"/>
      <point x="688" y="1376" type="curve" smooth="yes"/>
      <point x="924" y="1376"/>
      <point x="968" y="1254"/>
      <point x="1015" y="1073" type="curve" smooth="no"/>
      <point x="1149" y="1104" type="line" smooth="no"/>
      <point x="1080" y="1404"/>
      <point x="919" y="1493"/>
      <point x="682" y="1493" type="curve" smooth="yes"/>
      <point x="366" y="1493"/>
      <point x="163" y="1301"/>
      <point x="121" y="882" type="curve" smooth="no"/>
      <point x="-13" y="882" type="line" smooth="no"/>
      <point x="-13" y="796" type="line" smooth="no"/>
      <point x="115" y="796" type="line" smooth="no"/>
      <point x="114" y="778"/>
      <point x="114" y="694"/>
      <point x="115" y="672" type="curve" smooth="no"/>
      <point x="-13" y="672" type="line" smooth="no"/>
      <point x="-13" y="586" type="line" smooth="no"/>
      <point x="122" y="586" type="line" smooth="no"/>
      <point x="168" y="159"/>
      <point x="381" y="-23"/>
      <point x="686" y="-23" type="curve" smooth="yes"/>
      <point x="982" y="-23"/>
      <point x="1083" y="108"/>
    </contour>
  </outline>
</glyph>
<glyph name="trademark" format="1">
  <advance width="1847"/>
  <unicode hex="2122"/>
  <outline>
    <contour>
      <point x="116" y="1370" type="line" smooth="no"/>
      <point x="116" y="1465" type="line" smooth="no"/>
      <point x="757" y="1465" type="line" smooth="no"/>
      <point x="757" y="1370" type="line" smooth="no"/>
      <point x="492" y="1370" type="line" smooth="no"/>
      <point x="492" y="616" type="line" smooth="no"/>
      <point x="378" y="616" type="line" smooth="no"/>
      <point x="378" y="1370" type="line" smooth="no"/>
    </contour>
    <contour>
      <point x="938" y="616" type="line" smooth="no"/>
      <point x="938" y="1465" type="line" smooth="no"/>
      <point x="1081" y="1465" type="line" smooth="no"/>
      <point x="1331" y="876" type="line" smooth="no"/>
      <point x="1415" y="1072"/>
      <point x="1503" y="1268"/>
      <point x="1587" y="1464" type="curve" smooth="no"/>
      <point x="1718" y="1464" type="line" smooth="no"/>
      <point x="1718" y="616" type="line" smooth="no"/>
      <point x="1614" y="616" type="line" smooth="no"/>
      <point x="1614" y="1267" type="line" smooth="no"/>
      <point x="1373" y="732" type="line" smooth="no"/>
      <point x="1280" y="732" type="line" smooth="no"/>
      <point x="1046" y="1270" type="line" smooth="no"/>
      <point x="1046" y="616" type="line" smooth="no"/>
    </contour>
  </outline>
</glyph>
